<svg xmlns="http://www.w3.org/2000/svg" xmlns:xlink="http://www.w3.org/1999/xlink" width="32" height="32" viewBox="0 0 32 32">
  <defs>
    <path id="availability-a" d="M13.0164401,17.7613909 C13.9063186,19.3027057 15.2405993,20.6153135 15.6969695,20.9323097 C15.808038,21.0094583 15.9121829,20.9419758 15.9289251,20.9323097 C16.4210631,20.6481737 17.0282471,20.2946723 17.7504771,19.8718056 C17.907626,19.7689722 18.1260835,19.5977644 18.7448922,19.5977644 C19.3637009,19.5977644 22.7378546,21.1587001 22.8636378,21.376563 C22.9894209,21.5944258 23.1758769,21.9205806 22.6125247,23.7464915 C22.0491724,25.5724023 21.7671525,25.7314246 21.5378962,25.8637857 C21.30864,25.9961468 21.0682724,26.032045 20.8167862,25.9714813 C18.6865497,25.4584708 16.7658205,24.5582547 15.0545408,23.2708057 C13.408605,22.030355 12.0720424,20.5205456 11.044813,18.7413321 C10.0175836,16.9621186 9.37833156,15.0497167 9.12703766,13.0040691 C8.86771402,10.8783329 8.99353811,8.81925204 9.61437625,6.71790796 C9.68766965,6.46983262 9.89387264,6.22518975 10.1231289,6.09282861 C10.3523851,5.96046747 10.726674,5.92153151 12.4191029,6.30772328 C14.1115319,6.69391505 14.6600761,7.13053526 14.6600761,7.56719066 C14.6600761,8.00384606 14.5388643,10.5521268 14.3879323,11.0561977 C14.2370004,11.5602685 13.9636363,12.0267295 13.5860602,12.3051411 C12.7659152,12.7507722 12.1144751,13.1129413 11.6317401,13.3916485 C11.6019671,13.4088379 11.4055415,13.5121272 11.4473201,13.7116842 C11.6226347,14.5490804 12.1265616,16.2200762 13.0164401,17.7613909 Z M31,6.625 L31,25.375 C31,28.4804688 28.4804688,31 25.375,31 L6.625,31 C3.51953125,31 1,28.4804688 1,25.375 L1,6.625 C1,3.51953125 3.51953125,1 6.625,1 L25.375,1 C28.4804688,1 31,3.51953125 31,6.625 Z"/>
  </defs>
  <g fill="none" fill-rule="evenodd">
    <use fill="#2A3042" xlink:href="#availability-a"/>
  </g>
</svg>
