<svg xmlns="http://www.w3.org/2000/svg" xmlns:xlink="http://www.w3.org/1999/xlink" width="32" height="32" viewBox="0 0 32 32">
  <defs>
    <path id="contacts-a" d="M1,21 L1,11 L3.39178569,11 C4.49635519,11 5.39178569,10.1045695 5.39178569,9 C5.39178569,7.8954305 4.49635519,7 3.39178569,7 L1.05512716,7 C1.47029191,3.32671353 4.20063128,1 8.23333333,1 L24.7666667,1 C29.1541214,1 32,3.75407609 32,8 L32,24 C32,28.2459239 29.1541214,31 24.7666667,31 L8.23333333,31 C4.20063128,31 1.47029191,28.6732865 1.05512716,25 L3.39178569,25 C4.49635519,25 5.39178569,24.1045695 5.39178569,23 C5.39178569,21.8954305 4.49635519,21 3.39178569,21 L1,21 Z M1,8 L3,8 C3.55228475,8 4,8.44771525 4,9 C4,9.55228475 3.55228475,10 3,10 L1,10 C0.44771525,10 6.76353751e-17,9.55228475 0,9 C-6.76353751e-17,8.44771525 0.44771525,8 1,8 Z M1,22 L3,22 C3.55228475,22 4,22.4477153 4,23 C4,23.5522847 3.55228475,24 3,24 L1,24 C0.44771525,24 6.76353751e-17,23.5522847 0,23 C-6.76353751e-17,22.4477153 0.44771525,22 1,22 Z M16.615,7 C14.4222836,7 13,8.4753979 13,10.75 C13,13.0246021 14.4222836,14.5 16.615,14.5 C18.8077164,14.5 20.23,13.0246021 20.23,10.75 C20.23,8.4753979 18.8077164,7 16.615,7 Z M9,21.3027051 C9,25.2355534 24,25.2293086 24,21.3027051 C24,17.3761016 21.0492042,17 16.5,17 C11.9507958,17 9,17.3698568 9,21.3027051 Z"/>
  </defs>
  <g fill="none" fill-rule="evenodd">
    <use fill="#2A3042" xlink:href="#contacts-a"/>
  </g>
</svg>
