<svg xmlns="http://www.w3.org/2000/svg" xmlns:xlink="http://www.w3.org/1999/xlink" width="32" height="32" viewBox="0 0 32 32">
  <defs>
    <path id="correct-a" d="M5.81116985,7.22058884 C6.35714779,6.55132556 7.26453562,6.14446261 8.53333333,6 L28.2666667,6 C30.5311594,6 32,7.80051426 32,10.5763441 L32,21.0365591 C32,23.812389 30.5311594,25.6129032 28.2666667,25.6129032 L8.53333333,25.6129032 C7.26453562,25.4684406 6.35714779,25.0615777 5.81116985,24.3923144 L0.995743528,18.4895337 C-0.331914509,16.8620819 -0.331914509,14.7508213 0.995743528,13.1233695 L5.81116985,7.22058884 Z M14.8960922,15.6 L12.182874,18.3132181 C11.5834864,18.9126057 11.5834864,19.884405 12.182874,20.4837926 C12.7822616,21.0831802 13.7540609,21.0831802 14.3534485,20.4837926 L17.0666667,17.7705745 L19.7798848,20.4837926 C20.3792724,21.0831802 21.3510717,21.0831802 21.9504593,20.4837926 C22.5498469,19.884405 22.5498469,18.9126057 21.9504593,18.3132181 L19.2372412,15.6 L21.9504593,12.8867819 C22.5498469,12.2873943 22.5498469,11.315595 21.9504593,10.7162074 C21.3510717,10.1168198 20.3792724,10.1168198 19.7798848,10.7162074 L17.0666667,13.4294255 L14.3534485,10.7162074 C13.7540609,10.1168198 12.7822616,10.1168198 12.182874,10.7162074 C11.5834864,11.315595 11.5834864,12.2873943 12.182874,12.8867819 L14.8960922,15.6 Z"/>
  </defs>
  <g fill="none" fill-rule="evenodd">
    <use fill="#2A3042" xlink:href="#correct-a"/>
  </g>
</svg>
