<svg xmlns="http://www.w3.org/2000/svg" xmlns:xlink="http://www.w3.org/1999/xlink" width="32" height="32" viewBox="0 0 32 32">
  <defs>
    <path id="disconnected-a" d="M15.8790816,19.6241411 L5.21895142,30.2842712 L3.33333333,28.3986532 L29.7319865,2 L31.6176046,3.88561808 L28.709863,6.79335961 C29.7297136,7.52686593 30.6909006,8.35894747 31.5977725,9.3059934 C31.8475442,9.56682985 32,9.98539214 32,10.3536318 C32,10.7218715 31.7849453,11.1998497 30.1300135,12.9700761 C28.4750817,14.7403025 27.5606224,15.0974428 27.0305656,14.7937399 C26.5592847,14.5237134 24.1288053,12.9772278 23.2398588,12.2633638 L20.7410023,14.7622204 C22.3721101,15.3918406 23.8980393,16.3417382 25.0504951,17.5745318 C25.1753619,17.7093633 25.2586065,17.8891386 25.2586065,18.0913858 C25.2586065,18.6307116 22.2409908,21.8666667 21.7415233,21.8666667 C21.4501673,21.8666667 19.1817528,19.6194757 16.1225148,19.6194757 C16.0407626,19.6194757 15.9596116,19.6210588 15.8790816,19.6241411 Z M8.39438242,20.0042707 C7.64303801,19.1813143 6.98642307,18.3429649 6.98642307,18.0913858 C6.98642307,17.8891386 7.06966764,17.7093633 7.1945345,17.5745318 C9.01690507,15.6251234 11.773142,14.3830934 14.4024053,13.9962479 L8.39438242,20.0042707 Z M24.1273011,4.27135204 L21.7670544,6.63159879 C20.6068224,6.26071225 18.2620028,5.72341064 15.8077443,5.72341064 C13.3130713,5.72341064 10.7845684,6.41784237 10.0799207,6.74714374 C9.9084279,6.82728704 9.91735541,6.99968348 9.91735541,7.02657534 C9.91735541,7.81706537 9.92092855,8.79439377 9.92807484,9.95856053 C9.94276729,10.219397 9.99749155,10.6016464 9.56380163,11.3471112 C9.13011171,12.092576 4.87052523,15.0716793 4.51790639,15.0716793 C4.16528754,15.0716793 3.63869062,15.0694512 1.81703768,13.1208345 C-0.004615267,11.1722178 5.88787347e-08,10.7218715 5.88787861e-08,10.3536318 C5.88788118e-08,9.98539214 0.124884026,9.67085878 0.374655706,9.41002233 C2.49036876,7.20058417 4.92927917,5.51284423 7.6914601,4.34675187 C10.3507939,3.22668947 13.1202795,2.66666667 16,2.66666667 C18.8143618,2.66666667 21.5234357,3.20155714 24.1272993,4.27135378 Z M16.1225148,28.2666667 C15.6174721,28.2666667 12.8980118,25.1939643 12.8980118,24.6013717 C12.8980118,23.5259259 15.3843755,22.9333333 16.1225148,22.9333333 C16.860654,22.9333333 19.3470177,23.5259259 19.3470177,24.6013717 C19.3470177,25.1939643 16.6275574,28.2666667 16.1225148,28.2666667 Z"/>
  </defs>
  <g fill="none" fill-rule="evenodd">
    <use fill="#2A3042" xlink:href="#disconnected-a"/>
  </g>
</svg>
