<svg xmlns="http://www.w3.org/2000/svg" xmlns:xlink="http://www.w3.org/1999/xlink" width="32" height="32" viewBox="0 0 32 32">
  <defs>
    <path id="ext-tab-a" d="M32,14.5125541 L32,24.5714286 C32,29.077307 29.077307,32 24.5714286,32 L7.42857143,32 C2.92269299,32 0,29.077307 0,24.5714286 L0,7.42857143 C0,2.92269299 2.92269299,0 7.42857143,0 L17.4201608,0 L12.2773036,5.14285714 L7.85714286,5.14285714 C6.2107642,5.14285714 5.14285714,6.2107642 5.14285714,7.85714286 L5.14285714,24.1428571 C5.14285714,25.7892358 6.2107642,26.8571429 7.85714286,26.8571429 L24.1428571,26.8571429 C25.7892358,26.8571429 26.8571429,25.7892358 26.8571429,24.1428571 L26.8571429,19.6554112 L32,14.5125541 Z M18.8937205,16.4355944 C18.0522909,17.2770241 16.960721,17.2770241 16.1192914,16.4355944 L15.5644056,15.8807086 C14.7229759,15.039279 14.7229759,13.9477091 15.5644056,13.1062795 L23.2457841,5.42490097 C23.3990116,5.27167348 23.3990116,5.02324263 23.2457841,4.87001514 C23.1727422,4.79697329 23.0738431,4.75568171 22.970548,4.75510073 L18.6166658,4.73061261 C18.1234642,4.72783863 17.7243306,4.32870501 17.7215566,3.83550347 C17.7083978,1.49593135 19.2174026,-0.0130733988 21.5569747,8.5371954e-05 L29.8646009,0.0468110737 C31.1243705,0.0538965656 31.9461034,0.875629454 31.9531889,2.13539906 L31.9999146,10.4430253 C32.0130734,12.7825974 30.5040686,14.2916022 28.1644965,14.2784434 C27.671295,14.2756694 27.2721614,13.8765358 27.2693874,13.3833342 L27.2448993,9.02945202 C27.2436805,8.81275905 27.0670281,8.63808271 26.8503352,8.63930149 C26.74704,8.63988246 26.6481409,8.68117404 26.575099,8.7542159 L18.8937205,16.4355944 Z"/>
  </defs>
  <g fill="none" fill-rule="evenodd">
    <use fill="#2A3042" xlink:href="#ext-tab-a"/>
  </g>
</svg>
