<svg xmlns="http://www.w3.org/2000/svg" xmlns:xlink="http://www.w3.org/1999/xlink" width="32" height="32" viewBox="0 0 32 32">
  <defs>
    <path id="logout-a" d="M18.1321163,4.30411516 C17.9318293,4.27917154 17.7224368,4.2663803 17.5047074,4.2663803 L8.09357439,4.2663803 C6.09562666,4.2663803 4.79967784,5.34345776 4.79967784,7.00397432 L4.79967784,24.9938779 C4.79967784,26.6543945 6.09562666,27.7314719 8.09357439,27.7314719 L17.5047074,27.7314719 C17.7224368,27.7314719 17.9318293,27.7186807 18.1321163,27.6937371 L18.1321163,28.2647695 C18.1321163,30.5291102 16.6633743,31.9978522 14.3990335,31.9978522 L3.73308276,31.9978522 C1.46874199,31.9978522 0,30.5291102 0,28.2647695 L0,3.73308276 C0,1.46874199 1.46874199,0 3.73308276,0 L14.3990335,0 C16.6633743,0 18.1321163,1.46874199 18.1321163,3.73308276 L18.1321163,4.30411516 Z M10.9789227,17.9791356 C9.72886817,17.9791356 8.91803279,17.1582486 8.91803279,15.8926975 L8.91803279,15.0581222 C8.91803279,13.7925711 9.72886817,12.9716841 10.9789227,12.9716841 L22.7842099,12.9716841 C22.9222811,12.9716841 23.0342099,12.8597552 23.0342099,12.7216841 C23.0342099,12.6564002 23.0086729,12.5937061 22.9630574,12.5470027 L19.4677682,8.96835276 C19.1034708,8.59536712 19.1034708,7.99505074 19.4677682,7.62206509 C21.1958649,5.85275426 23.4376902,5.85275426 25.1657869,7.62206509 L31.3021148,13.9047409 C32.2326284,14.8574467 32.2326284,16.0933729 31.3021148,17.0460788 L25.1657869,23.3287546 C23.4376902,25.0980654 21.1958649,25.0980654 19.4677682,23.3287546 C19.1034708,22.9557689 19.1034708,22.3554526 19.4677682,21.9824669 L22.9630574,18.403817 C23.0595313,18.3050423 23.0576661,18.146762 22.9588913,18.0502882 C22.9121879,18.0046726 22.8494938,17.9791356 22.7842099,17.9791356 L10.9789227,17.9791356 Z"/>
  </defs>
  <g fill="none" fill-rule="evenodd">
    <use fill="#2A3042" xlink:href="#logout-a"/>
  </g>
</svg>
