<svg xmlns="http://www.w3.org/2000/svg" xmlns:xlink="http://www.w3.org/1999/xlink" width="32" height="32" viewBox="0 0 32 32">
  <defs>
    <path id="queues-a" d="M8.51011327,18.7204157 C6.42384052,18.2077583 5.13630573,16.508863 5.13630573,14.1125265 C5.13630573,11.2195804 7.01278633,9.34309979 9.90573248,9.34309979 C12.7986786,9.34309979 14.6751592,11.2195804 14.6751592,14.1125265 C14.6751592,15.542077 14.2169516,16.7234222 13.404309,17.5527894 C14.2310898,17.5088641 15.1191764,17.495966 16.0611465,17.495966 C21.8470388,17.495966 25.6,17.9908044 25.6,23.157052 C25.6,24.8993305 23.4302443,26.054973 20.5542007,26.6230341 C20.6550443,26.3789184 20.7082803,26.1204048 20.7082803,25.8474979 C20.7082803,20.6812503 16.9553191,20.1864119 11.1694268,20.1864119 C9.6468832,20.1864119 8.26511331,20.2201088 7.05545963,20.3640577 C7.39222508,19.6585319 7.88268859,19.124278 8.51011327,18.7204157 Z M15.6403747,15.9459568 C16.0712866,15.2153675 16.3057325,14.3198019 16.3057325,13.2972399 C16.3057325,10.70486 14.7989149,8.92870391 12.4041235,8.58761527 C12.932334,6.53247521 14.6226939,5.26666667 16.9987261,5.26666667 C19.8916723,5.26666667 21.7681529,7.14314726 21.7681529,10.0360934 C21.7681529,11.3404355 21.3866952,12.4381469 20.7026039,13.2504032 C21.2648926,13.2346977 21.8517434,13.2292994 22.4611465,13.2292994 C28.2470388,13.2292994 32,13.7241377 32,18.8903854 C32,20.6326638 29.8302443,21.7883063 26.9542007,22.3563675 C27.0550443,22.1122517 27.1082803,21.8537382 27.1082803,21.5808312 C27.1082803,16.4145836 23.3553191,15.9197452 17.5694268,15.9197452 C16.8981496,15.9197452 16.2542369,15.9262954 15.6403747,15.9459568 Z M22.9477709,10.5231917 C23.0537152,10.0913588 23.1088532,9.62532664 23.1088532,9.12942689 C23.1088532,6.38969271 21.4258683,4.56160998 18.7903816,4.37566195 C19.3024878,2.28829778 21.0016797,1 23.3987261,1 C26.2916723,1 28.1681529,2.8764806 28.1681529,5.76942675 C28.1681529,8.66237291 26.2916723,10.5388535 23.3987261,10.5388535 C23.2455141,10.5388535 23.0951531,10.5335903 22.9477709,10.5231917 Z M0,27.4780712 C-2.46464111e-14,22.3036072 3.75296119,21.8169851 9.5388535,21.8169851 C15.3247458,21.8169851 19.077707,22.3118235 19.077707,27.4780712 C19.077707,32.6443188 2.5910849e-14,32.6525352 0,27.4780712 Z"/>
  </defs>
  <g fill="none" fill-rule="evenodd">
    <use fill="#2A3042" xlink:href="#queues-a"/>
  </g>
</svg>
