<svg xmlns="http://www.w3.org/2000/svg" width="32" height="32" viewBox="0 0 32 32">
  <path fill="#2A3042" fill-rule="evenodd" d="M9.02502138,18.6237629 C10.36007,20.9361349 12.3569084,22.9082327 13.0392448,23.3851587 C13.2053076,23.50123 13.3603283,23.4006952 13.385255,23.3863038 C14.1179791,22.9632653 15.0219759,22.4369265 16.0972455,21.8072872 C16.3311583,21.6540792 16.6561881,21.3987895 17.5792707,21.4018443 C18.5023532,21.4048991 23.5433146,23.7589154 23.732022,24.0857662 C23.9207294,24.412617 24.2004776,24.9019247 23.3691336,27.6332796 C22.5377895,30.3646345 22.1178829,30.6013636 21.7765527,30.7984307 C21.4352225,30.9954978 21.0768412,31.0480654 20.7013979,30.9561353 C17.5211723,30.1774327 14.6515591,28.8199588 12.0924722,26.883673 C9.63109115,25.0180853 7.62987537,22.7506846 6.08876481,20.0814028 C4.54765425,17.412121 3.5846355,14.545317 3.19967968,11.4809046 C2.80235047,8.29652738 2.97987867,5.21386159 3.8956152,2.07035421 C4.00372299,1.69924569 4.31011018,1.3339331 4.65144035,1.13686604 C4.99277052,0.939798971 5.55090854,0.883343598 8.07742659,1.46998549 C10.6039447,2.05662738 11.4243684,2.71313446 11.426524,3.36698632 C11.4286795,4.02083818 11.2604465,7.83605912 11.0377883,8.59011445 C10.8151301,9.34416978 10.4096531,10.0413033 9.84779377,10.4563355 C8.62657589,11.1195789 7.65660475,11.6586785 6.93788035,12.0736342 C6.89355261,12.0992268 6.60105258,12.2529235 6.66435922,12.5519482 C6.93001142,13.8067386 7.68997278,16.3113909 9.02502138,18.6237629 Z M14.4974999,15.6316702 C14.2272215,15.1635341 15.6200369,10.9984147 16.1693252,10.681283 C17.1661816,10.1057477 19.0460717,12.0932859 19.4410941,12.7774848 C19.8361165,13.4616837 20.6174301,16.0834854 19.6205736,16.6590207 C19.0712854,16.9761524 14.7677784,16.0998063 14.4974999,15.6316702 Z M23.547657,17.0712199 C23.391735,16.8011551 24.2607458,13.4959012 22.6235647,10.6602204 C20.9752464,7.80524924 17.7005817,6.94378846 17.5335224,6.65443328 C17.2662275,6.19146498 18.6508051,1.66261193 19.1507191,1.37398644 C19.3381869,1.26575188 19.549374,1.24670476 19.7411762,1.29029047 C23.1408194,2.07959487 26.3076625,4.72657735 27.9559809,7.5815485 C29.6042992,10.4365197 30.3132317,14.5025775 29.2969678,17.841407 C29.238813,18.0293055 29.1167242,18.2026753 28.9292564,18.3109099 C28.4293424,18.5995354 23.8149518,17.5341882 23.547657,17.0712199 Z"/>
</svg>
