<svg xmlns="http://www.w3.org/2000/svg" xmlns:xlink="http://www.w3.org/1999/xlink" width="32" height="32" viewBox="0 0 32 32">
  <defs>
    <path id="arrow-a" d="M2.85714286,19 C1.12411269,19 0,17.8758873 0,16.1428571 L0,15 C0,13.2669698 1.12411269,12.1428571 2.85714286,12.1428571 L18.8489896,12.1428571 C19.1251319,12.1428571 19.3489896,11.9189995 19.3489896,11.6428571 C19.3489896,11.5112231 19.2970802,11.3848992 19.2045259,11.2912979 L14.6257695,6.6607443 C14.1207209,6.14998232 14.1207209,5.32791642 14.6257695,4.81715445 C17.0215399,2.39428185 20.129525,2.39428185 22.5252955,4.81715445 L31.0324773,13.4205737 C32.3225076,14.7251975 32.3225076,16.4176597 31.0324773,17.7222834 L22.5252955,26.3257027 C20.129525,28.7485753 17.0215399,28.7485753 14.6257695,26.3257027 C14.1207209,25.8149407 14.1207209,24.9928748 14.6257695,24.4821128 L19.2045259,19.8515593 C19.3986867,19.655202 19.3969061,19.3386245 19.2005489,19.1444637 C19.1069475,19.0519094 18.9806236,19 18.8489896,19 L2.85714286,19 Z"/>
  </defs>
  <g fill="none" fill-rule="evenodd">
    <use fill="#2A3042" xlink:href="#arrow-a"/>
  </g>
</svg>
