<svg xmlns="http://www.w3.org/2000/svg" xmlns:xlink="http://www.w3.org/1999/xlink" width="32" height="32" viewBox="0 0 32 32">
  <defs>
    <path id="check-a" d="M31.862069,5.4137931 C31.9540234,5.32183862 32,5.18390897 32,5 C32,4.72413655 31.9540234,4.54023034 31.862069,4.44827586 L27.5862069,1.13793103 C27.4942524,1.04597655 27.3103462,1 27.0344828,1 C26.8505738,1 26.7126441,1.04597655 26.6206897,1.13793103 L11.3103448,20.862069 C7.26434759,16.9999807 5.19540276,15.022989 5.10344828,14.9310345 C4.82758483,14.655171 4.55172552,14.5172414 4.27586207,14.5172414 C4.18390759,14.5172414 4.00000138,14.655171 3.72413793,14.9310345 L0.137931034,18.5172414 C0.0459765517,18.6091959 0,18.7931021 0,19.0689655 C0,19.2528745 0.0459765517,19.3908041 0.137931034,19.4827586 L0.413793103,19.6206897 C7.58624276,26.5172759 11.2183903,30.0114938 11.3103448,30.1034483 C11.5862083,30.3793117 11.816091,30.5172414 12,30.5172414 C12.183909,30.5172414 12.4137917,30.3793117 12.6896552,30.1034483 L31.862069,5.4137931 Z"/>
  </defs>
  <g fill="none" fill-rule="evenodd">
    <use fill="#2A3042" xlink:href="#check-a"/>
  </g>
</svg>
