<svg xmlns="http://www.w3.org/2000/svg" xmlns:xlink="http://www.w3.org/1999/xlink" width="32" height="32" viewBox="0 0 32 32">
  <defs>
    <path id="close-a" d="M11.363961,16.3137085 L2.52512627,7.47487373 C1.15829124,6.10803871 1.15829124,3.89196129 2.52512627,2.52512627 C3.89196129,1.15829124 6.10803871,1.15829124 7.47487373,2.52512627 L16.3137085,11.363961 L25.1525433,2.52512627 C26.5193783,1.15829124 28.7354557,1.15829124 30.1022907,2.52512627 C31.4691258,3.89196129 31.4691258,6.10803871 30.1022907,7.47487373 L21.263456,16.3137085 L30.1022907,25.1525433 C31.4691258,26.5193783 31.4691258,28.7354557 30.1022907,30.1022907 C28.7354557,31.4691258 26.5193783,31.4691258 25.1525433,30.1022907 L16.3137085,21.263456 L7.47487373,30.1022907 C6.10803871,31.4691258 3.89196129,31.4691258 2.52512627,30.1022907 C1.15829124,28.7354557 1.15829124,26.5193783 2.52512627,25.1525433 L11.363961,16.3137085 Z"/>
  </defs>
  <g fill="none" fill-rule="evenodd">
    <use fill="#2A3042" xlink:href="#close-a"/>
  </g>
</svg>
