<svg xmlns="http://www.w3.org/2000/svg" xmlns:xlink="http://www.w3.org/1999/xlink" width="32" height="32" viewBox="0 0 32 32">
  <defs>
    <path id="contacts-lean-a" d="M1,0 L31,0 C31.5522847,-1.01453063e-16 32,0.44771525 32,1 L32,7 C32,7.55228475 31.5522847,8 31,8 L1,8 C0.44771525,8 6.76353751e-17,7.55228475 0,7 L0,1 C-6.76353751e-17,0.44771525 0.44771525,1.01453063e-16 1,0 Z M1,12 L31,12 C31.5522847,12 32,12.4477153 32,13 L32,19 C32,19.5522847 31.5522847,20 31,20 L1,20 C0.44771525,20 6.76353751e-17,19.5522847 0,19 L0,13 C-6.76353751e-17,12.4477153 0.44771525,12 1,12 Z M1,24 L31,24 C31.5522847,24 32,24.4477153 32,25 L32,31 C32,31.5522847 31.5522847,32 31,32 L1,32 C0.44771525,32 6.76353751e-17,31.5522847 0,31 L0,25 C-6.76353751e-17,24.4477153 0.44771525,24 1,24 Z"/>
  </defs>
  <g fill="none" fill-rule="evenodd">
    <use fill="#2A3042" xlink:href="#contacts-lean-a"/>
  </g>
</svg>
