<svg xmlns="http://www.w3.org/2000/svg" xmlns:xlink="http://www.w3.org/1999/xlink" width="32" height="32" viewBox="0 0 32 32">
  <defs>
    <path id="contacts-regular-a" d="M1,1 L13,1 C13.5522847,1 14,1.44771525 14,2 L14,7 C14,7.55228475 13.5522847,8 13,8 L1,8 C0.44771525,8 6.76353751e-17,7.55228475 0,7 L0,2 C-6.76353751e-17,1.44771525 0.44771525,1 1,1 Z M1,13 L13,13 C13.5522847,13 14,13.4477153 14,14 L14,19 C14,19.5522847 13.5522847,20 13,20 L1,20 C0.44771525,20 6.76353751e-17,19.5522847 0,19 L0,14 C-6.76353751e-17,13.4477153 0.44771525,13 1,13 Z M1,25 L13,25 C13.5522847,25 14,25.4477153 14,26 L14,31 C14,31.5522847 13.5522847,32 13,32 L1,32 C0.44771525,32 6.76353751e-17,31.5522847 0,31 L0,26 C-6.76353751e-17,25.4477153 0.44771525,25 1,25 Z M19,1 L31,1 C31.5522847,1 32,1.44771525 32,2 L32,7 C32,7.55228475 31.5522847,8 31,8 L19,8 C18.4477153,8 18,7.55228475 18,7 L18,2 C18,1.44771525 18.4477153,1 19,1 Z M19,13 L31,13 C31.5522847,13 32,13.4477153 32,14 L32,19 C32,19.5522847 31.5522847,20 31,20 L19,20 C18.4477153,20 18,19.5522847 18,19 L18,14 C18,13.4477153 18.4477153,13 19,13 Z M19,25 L31,25 C31.5522847,25 32,25.4477153 32,26 L32,31 C32,31.5522847 31.5522847,32 31,32 L19,32 C18.4477153,32 18,31.5522847 18,31 L18,26 C18,25.4477153 18.4477153,25 19,25 Z"/>
  </defs>
  <g fill="none" fill-rule="evenodd">
    <use fill="#2A3042" xlink:href="#contacts-regular-a"/>
  </g>
</svg>
