<svg xmlns="http://www.w3.org/2000/svg" xmlns:xlink="http://www.w3.org/1999/xlink" width="32" height="32" viewBox="0 0 32 32">
  <defs>
    <path id="contacts-dense-a" d="M1,0 L7,0 C7.55228475,-1.01453063e-16 8,0.44771525 8,1 L8,4 C8,4.55228475 7.55228475,5 7,5 L1,5 C0.44771525,5 6.76353751e-17,4.55228475 0,4 L0,1 C-6.76353751e-17,0.44771525 0.44771525,1.01453063e-16 1,0 Z M13,0 L19,0 C19.5522847,-1.01453063e-16 20,0.44771525 20,1 L20,4 C20,4.55228475 19.5522847,5 19,5 L13,5 C12.4477153,5 12,4.55228475 12,4 L12,1 C12,0.44771525 12.4477153,1.01453063e-16 13,0 Z M25,0 L31,0 C31.5522847,-1.01453063e-16 32,0.44771525 32,1 L32,4 C32,4.55228475 31.5522847,5 31,5 L25,5 C24.4477153,5 24,4.55228475 24,4 L24,1 C24,0.44771525 24.4477153,1.01453063e-16 25,0 Z M1,9 L7,9 C7.55228475,9 8,9.44771525 8,10 L8,13 C8,13.5522847 7.55228475,14 7,14 L1,14 C0.44771525,14 6.76353751e-17,13.5522847 0,13 L0,10 C-6.76353751e-17,9.44771525 0.44771525,9 1,9 Z M13,9 L19,9 C19.5522847,9 20,9.44771525 20,10 L20,13 C20,13.5522847 19.5522847,14 19,14 L13,14 C12.4477153,14 12,13.5522847 12,13 L12,10 C12,9.44771525 12.4477153,9 13,9 Z M25,9 L31,9 C31.5522847,9 32,9.44771525 32,10 L32,13 C32,13.5522847 31.5522847,14 31,14 L25,14 C24.4477153,14 24,13.5522847 24,13 L24,10 C24,9.44771525 24.4477153,9 25,9 Z M1,18 L7,18 C7.55228475,18 8,18.4477153 8,19 L8,22 C8,22.5522847 7.55228475,23 7,23 L1,23 C0.44771525,23 6.76353751e-17,22.5522847 0,22 L0,19 C-6.76353751e-17,18.4477153 0.44771525,18 1,18 Z M13,18 L19,18 C19.5522847,18 20,18.4477153 20,19 L20,22 C20,22.5522847 19.5522847,23 19,23 L13,23 C12.4477153,23 12,22.5522847 12,22 L12,19 C12,18.4477153 12.4477153,18 13,18 Z M25,18 L31,18 C31.5522847,18 32,18.4477153 32,19 L32,22 C32,22.5522847 31.5522847,23 31,23 L25,23 C24.4477153,23 24,22.5522847 24,22 L24,19 C24,18.4477153 24.4477153,18 25,18 Z M1,27 L7,27 C7.55228475,27 8,27.4477153 8,28 L8,31 C8,31.5522847 7.55228475,32 7,32 L1,32 C0.44771525,32 6.76353751e-17,31.5522847 0,31 L0,28 C-6.76353751e-17,27.4477153 0.44771525,27 1,27 Z M13,27 L19,27 C19.5522847,27 20,27.4477153 20,28 L20,31 C20,31.5522847 19.5522847,32 19,32 L13,32 C12.4477153,32 12,31.5522847 12,31 L12,28 C12,27.4477153 12.4477153,27 13,27 Z M25,27 L31,27 C31.5522847,27 32,27.4477153 32,28 L32,31 C32,31.5522847 31.5522847,32 31,32 L25,32 C24.4477153,32 24,31.5522847 24,31 L24,28 C24,27.4477153 24.4477153,27 25,27 Z"/>
  </defs>
  <g fill="none" fill-rule="evenodd">
    <use fill="#2A3042" xlink:href="#contacts-dense-a"/>
  </g>
</svg>
