<svg xmlns="http://www.w3.org/2000/svg" xmlns:xlink="http://www.w3.org/1999/xlink" width="32" height="32" viewBox="0 0 32 32">
  <defs>
    <path id="dialpad-off-a" d="M12.5333333,19.8478186 L15.3144345,17.0666667 L15.3527607,17.0666667 L21.0666667,11.3526564 L21.0666667,11.3143294 L23.8476119,8.53333333 L23.8859382,8.53333333 L29.0655793,3.35359768 C29.4523733,2.96679657 30.1421981,3.02950341 30.6063462,3.49365732 C31.0704942,3.95781124 31.133202,4.64764658 30.7464079,5.03444768 L26.6266093,9.15432156 C27.1615048,9.62062659 27.4666667,10.3276622 27.4666667,11.2 L27.4666667,12.2666667 C27.4666667,13.8841615 26.4174948,14.9333333 24.8,14.9333333 L23.7333333,14.9333333 C22.8610217,14.9333333 22.1540024,14.6281898 21.6876969,14.0933242 L18.0933593,17.6877275 C18.6282031,18.1540333 18.9333333,18.8610408 18.9333333,19.7333333 L18.9333333,20.8 C18.9333333,22.4174948 17.8841615,23.4666667 16.2666667,23.4666667 L15.2,23.4666667 C14.3277336,23.4666667 13.6207424,23.1615548 13.1544362,22.6267408 L6.93442074,28.8468698 C6.5476267,29.2336709 5.85780186,29.1709641 5.39365383,28.7068102 C4.92950581,28.2426563 4.86679801,27.5528209 5.25359205,27.1660198 L12.5333333,19.8861456 L12.5333333,19.8478186 Z M27.3447845,1.76880328 C27.2415986,1.81083345 27.1468928,1.87228279 27.0655793,1.95359782 L22.7632822,6.25597345 C21.7089841,5.91658638 21.0666667,4.99892743 21.0666667,3.73333333 L21.0666667,2.66666667 C21.0666667,1.04917184 22.1158385,0 23.7333333,0 L24.8,0 C26.0942271,0 27.0245974,0.671709964 27.3447845,1.76880328 Z M26.9506539,5.43023469 L26.4969346,5.88396227 C26.6693137,5.75455162 26.8212461,5.60261639 26.9506519,5.43023671 Z M18.7893245,10.2300038 L14.2300668,14.7893447 C13.1756987,14.4499881 12.5333333,13.5323079 12.5333333,12.2666667 L12.5333333,11.2 C12.5333333,9.58250518 13.5825052,8.53333333 15.2,8.53333333 L16.2666667,8.53333333 C17.5322827,8.53333333 18.4499516,9.17567306 18.7893245,10.2300038 Z M18.4168506,13.9641939 L17.9642271,14.4168256 C18.1361395,14.2876738 18.2877017,14.1361089 18.4168485,13.964196 Z M10.2560291,18.763455 L5.69685138,23.322716 C4.64241321,22.9833899 4,22.0656885 4,20.8 L4,19.7333333 C4,18.1158385 5.04917184,17.0666667 6.66666667,17.0666667 L7.73333333,17.0666667 C8.99899658,17.0666667 9.91668666,17.7090543 10.2560291,18.763455 Z M9.88304587,22.4981545 L9.43152101,22.9496876 C9.60296585,22.8207955 9.75415673,22.6696019 9.88304376,22.4981566 Z M16.2666667,25.6 C17.8841615,25.6 18.9333333,26.6491718 18.9333333,28.2666667 L18.9333333,29.3333333 C18.9333333,30.9508282 17.8841615,32 16.2666667,32 L15.2,32 C13.5825052,32 12.5333333,30.9508282 12.5333333,29.3333333 L12.5333333,28.2666667 C12.5333333,26.6491718 13.5825052,25.6 15.2,25.6 L16.2666667,25.6 Z M7.73333333,0 C9.35082816,0 10.4,1.04917184 10.4,2.66666667 L10.4,3.73333333 C10.4,5.35082816 9.35082816,6.4 7.73333333,6.4 L6.66666667,6.4 C5.04917184,6.4 4,5.35082816 4,3.73333333 L4,2.66666667 C4,1.04917184 5.04917184,0 6.66666667,0 L7.73333333,0 Z M16.2666667,0 C17.8841615,0 18.9333333,1.04917184 18.9333333,2.66666667 L18.9333333,3.73333333 C18.9333333,5.35082816 17.8841615,6.4 16.2666667,6.4 L15.2,6.4 C13.5825052,6.4 12.5333333,5.35082816 12.5333333,3.73333333 L12.5333333,2.66666667 C12.5333333,1.04917184 13.5825052,0 15.2,0 L16.2666667,0 Z M7.73333333,8.53333333 C9.35082816,8.53333333 10.4,9.58250518 10.4,11.2 L10.4,12.2666667 C10.4,13.8841615 9.35082816,14.9333333 7.73333333,14.9333333 L6.66666667,14.9333333 C5.04917184,14.9333333 4,13.8841615 4,12.2666667 L4,11.2 C4,9.58250518 5.04917184,8.53333333 6.66666667,8.53333333 L7.73333333,8.53333333 Z M24.8,17.0666667 C26.4174948,17.0666667 27.4666667,18.1158385 27.4666667,19.7333333 L27.4666667,20.8 C27.4666667,22.4174948 26.4174948,23.4666667 24.8,23.4666667 L23.7333333,23.4666667 C22.1158385,23.4666667 21.0666667,22.4174948 21.0666667,20.8 L21.0666667,19.7333333 C21.0666667,18.1158385 22.1158385,17.0666667 23.7333333,17.0666667 L24.8,17.0666667 Z"/>
  </defs>
  <g fill="none" fill-rule="evenodd">
    <mask id="dialpad-off-b" fill="#fff">
      <use xlink:href="#dialpad-off-a"/>
    </mask>
    <use fill="#2A3042" xlink:href="#dialpad-off-a"/>
    <g fill="#2E3192" mask="url(#dialpad-off-b)">
      <rect width="32" height="32"/>
    </g>
  </g>
</svg>
