<svg xmlns="http://www.w3.org/2000/svg" xmlns:xlink="http://www.w3.org/1999/xlink" width="32" height="32" viewBox="0 0 32 32">
  <defs>
    <path id="dialpad-a" d="M16.2666667,25.6 C17.8841615,25.6 18.9333333,26.6491718 18.9333333,28.2666667 L18.9333333,29.3333333 C18.9333333,30.9508282 17.8841615,32 16.2666667,32 L15.2,32 C13.5825052,32 12.5333333,30.9508282 12.5333333,29.3333333 L12.5333333,28.2666667 C12.5333333,26.6491718 13.5825052,25.6 15.2,25.6 L16.2666667,25.6 Z M7.73333333,0 C9.35082816,0 10.4,1.04917184 10.4,2.66666667 L10.4,3.73333333 C10.4,5.35082816 9.35082816,6.4 7.73333333,6.4 L6.66666667,6.4 C5.04917184,6.4 4,5.35082816 4,3.73333333 L4,2.66666667 C4,1.04917184 5.04917184,0 6.66666667,0 L7.73333333,0 Z M16.2666667,0 C17.8841615,0 18.9333333,1.04917184 18.9333333,2.66666667 L18.9333333,3.73333333 C18.9333333,5.35082816 17.8841615,6.4 16.2666667,6.4 L15.2,6.4 C13.5825052,6.4 12.5333333,5.35082816 12.5333333,3.73333333 L12.5333333,2.66666667 C12.5333333,1.04917184 13.5825052,0 15.2,0 L16.2666667,0 Z M24.8,0 C26.4174948,0 27.4666667,1.04917184 27.4666667,2.66666667 L27.4666667,3.73333333 C27.4666667,5.35082816 26.4174948,6.4 24.8,6.4 L23.7333333,6.4 C22.1158385,6.4 21.0666667,5.35082816 21.0666667,3.73333333 L21.0666667,2.66666667 C21.0666667,1.04917184 22.1158385,0 23.7333333,0 L24.8,0 Z M7.73333333,8.53333333 C9.35082816,8.53333333 10.4,9.58250518 10.4,11.2 L10.4,12.2666667 C10.4,13.8841615 9.35082816,14.9333333 7.73333333,14.9333333 L6.66666667,14.9333333 C5.04917184,14.9333333 4,13.8841615 4,12.2666667 L4,11.2 C4,9.58250518 5.04917184,8.53333333 6.66666667,8.53333333 L7.73333333,8.53333333 Z M16.2666667,8.53333333 C17.8841615,8.53333333 18.9333333,9.58250518 18.9333333,11.2 L18.9333333,12.2666667 C18.9333333,13.8841615 17.8841615,14.9333333 16.2666667,14.9333333 L15.2,14.9333333 C13.5825052,14.9333333 12.5333333,13.8841615 12.5333333,12.2666667 L12.5333333,11.2 C12.5333333,9.58250518 13.5825052,8.53333333 15.2,8.53333333 L16.2666667,8.53333333 Z M24.8,8.53333333 C26.4174948,8.53333333 27.4666667,9.58250518 27.4666667,11.2 L27.4666667,12.2666667 C27.4666667,13.8841615 26.4174948,14.9333333 24.8,14.9333333 L23.7333333,14.9333333 C22.1158385,14.9333333 21.0666667,13.8841615 21.0666667,12.2666667 L21.0666667,11.2 C21.0666667,9.58250518 22.1158385,8.53333333 23.7333333,8.53333333 L24.8,8.53333333 Z M7.73333333,17.0666667 C9.35082816,17.0666667 10.4,18.1158385 10.4,19.7333333 L10.4,20.8 C10.4,22.4174948 9.35082816,23.4666667 7.73333333,23.4666667 L6.66666667,23.4666667 C5.04917184,23.4666667 4,22.4174948 4,20.8 L4,19.7333333 C4,18.1158385 5.04917184,17.0666667 6.66666667,17.0666667 L7.73333333,17.0666667 Z M16.2666667,17.0666667 C17.8841615,17.0666667 18.9333333,18.1158385 18.9333333,19.7333333 L18.9333333,20.8 C18.9333333,22.4174948 17.8841615,23.4666667 16.2666667,23.4666667 L15.2,23.4666667 C13.5825052,23.4666667 12.5333333,22.4174948 12.5333333,20.8 L12.5333333,19.7333333 C12.5333333,18.1158385 13.5825052,17.0666667 15.2,17.0666667 L16.2666667,17.0666667 Z M24.8,17.0666667 C26.4174948,17.0666667 27.4666667,18.1158385 27.4666667,19.7333333 L27.4666667,20.8 C27.4666667,22.4174948 26.4174948,23.4666667 24.8,23.4666667 L23.7333333,23.4666667 C22.1158385,23.4666667 21.0666667,22.4174948 21.0666667,20.8 L21.0666667,19.7333333 C21.0666667,18.1158385 22.1158385,17.0666667 23.7333333,17.0666667 L24.8,17.0666667 Z"/>
  </defs>
  <g fill="none" fill-rule="evenodd">
    <use fill="#2A3042" xlink:href="#dialpad-a"/>
  </g>
</svg>
