<svg xmlns="http://www.w3.org/2000/svg" xmlns:xlink="http://www.w3.org/1999/xlink" width="32" height="32" viewBox="0 0 32 32">
  <defs>
    <path id="do-not-disturb-a" d="M31,6.625 L31,25.375 C31,28.4804688 28.4804688,31 25.375,31 L6.625,31 C3.51953125,31 1,28.4804688 1,25.375 L1,6.625 C1,3.51953125 3.51953125,1 6.625,1 L25.375,1 C28.4804688,1 31,3.51953125 31,6.625 Z M21.2923041,17.8228922 L21.2923041,16 L12,16 L12,17.8228922 L21.2923041,17.8228922 Z M16.2478433,7 C17.9373615,7 19.5008835,7.42237323 20.9384561,8.26713237 C22.3315676,9.0674305 23.428256,10.1641189 24.2285542,11.5572305 C25.0733133,12.994803 25.4956865,14.558325 25.4956865,16.2478433 C25.4956865,17.9373615 25.0733133,19.5008835 24.2285542,20.9384561 C23.428256,22.3315676 22.3315676,23.428256 20.9384561,24.2285542 C19.5008835,25.0733133 17.9373615,25.4956865 16.2478433,25.4956865 C14.558325,25.4956865 12.994803,25.0733133 11.5572305,24.2285542 C10.1641189,23.4134357 9.0674305,22.3093372 8.26713237,20.9162257 C7.42237323,19.4786531 7,17.9225412 7,16.2478433 C7,14.5731453 7.42237323,13.0170334 8.26713237,11.5794608 C9.08225084,10.1863493 10.1863493,9.08225084 11.5794608,8.26713237 C13.0170334,7.42237323 14.5731453,7 16.2478433,7 Z"/>
  </defs>
  <g fill="none" fill-rule="evenodd">
    <use fill="#2A3042" xlink:href="#do-not-disturb-a"/>
  </g>
</svg>
