<svg xmlns="http://www.w3.org/2000/svg" xmlns:xlink="http://www.w3.org/1999/xlink" width="32" height="32" viewBox="0 0 32 32">
  <defs>
    <path id="eye-a" d="M8.13439443,13.5319941 C8.58946523,15.2409643 10.1477008,16.5 12,16.5 C14.209139,16.5 16,14.709139 16,12.5 C16,10.290861 14.209139,8.5 12,8.5 C11.7385019,8.5 11.4828645,8.52509303 11.2353645,8.57300254 C11.266074,8.55019868 11.2969526,8.52760971 11.3279981,8.50523785 C5.89322079,9.70938083 2,12.8812856 2,16 C2,19.9571822 10.0180135,25 16,25 C21.9819865,25 30,19.9571822 30,16 C30,12.8812856 26.1067792,9.70938083 20.6720019,8.50523785 C22.6877407,9.95781072 24,12.3256581 24,15 C24,19.418278 20.418278,23 16,23 C11.581722,23 8,19.418278 8,15 C8,14.4985514 8.04613587,14.0078783 8.13439443,13.5319941 Z M16,27 C9.163444,27 0,20.836556 0,16 C4.30768932e-16,11.163444 7.163444,5 16,5 C24.836556,5 32,11.163444 32,16 C32,20.836556 22.836556,27 16,27 Z"/>
  </defs>
  <g fill="none" fill-rule="evenodd">
    <use fill="#000" xlink:href="#eye-a"/>
  </g>
</svg>
