<svg xmlns="http://www.w3.org/2000/svg" xmlns:xlink="http://www.w3.org/1999/xlink" width="32" height="32" viewBox="0 0 32 32">
  <defs>
    <path id="github-a" d="M12.125,24.5833333 C12.125,25.7083333 11.1041667,25.9583333 10.1875,25.9583333 C9.29166667,25.9583333 7.95833333,25.8125 7.95833333,24.6458333 C7.95833333,23.5 9.08333333,23.3125 10,23.3125 C10.875,23.3125 12.125,23.4583333 12.125,24.5833333 Z M11.375,14.875 C11.375,15.9166667 10.9583333,16.6458333 9.83333333,16.6458333 C8.6875,16.6458333 8.22916667,15.9791667 8.22916667,14.8958333 C8.22916667,13.8125 8.64583333,13.0208333 9.83333333,13.0208333 C10.8958333,13.0208333 11.375,13.8958333 11.375,14.875 Z M14.8333333,13.3125 L14.8333333,10.7083333 C13.9375,11.0416667 12.9791667,11.3125 12.0208333,11.3125 C11.3333333,10.9166667 10.5416667,10.7083333 9.72916667,10.7083333 C7.35416667,10.7083333 5.47916667,12.4583333 5.47916667,14.875 C5.47916667,16.1666667 6.33333333,17.9583333 7.625,18.3958333 L7.625,18.4583333 C6.95833333,18.75 6.83333333,19.5625 6.83333333,20.2291667 C6.83333333,20.9166667 7.08333333,21.4791667 7.6875,21.8333333 L7.6875,21.8958333 C6.27083333,22.3541667 5.33333333,23.25 5.33333333,24.7916667 C5.33333333,27.4375 7.85416667,28.1875 10.0625,28.1875 C12.7291667,28.1875 14.7291667,27.2083333 14.7291667,24.2708333 C14.7291667,22.1875 12.8333333,21.5625 11.1041667,21.25 C10.5208333,21.1458333 9.52083333,20.7291667 9.52083333,20 C9.52083333,19.3125 9.89583333,19.0208333 10.5416667,18.9166667 C12.6666667,18.5 14.0208333,16.8541667 14.0208333,14.6666667 C14.0208333,14.2916667 13.9375,13.9375 13.8125,13.5833333 C14.1458333,13.5 14.5,13.4166667 14.8333333,13.3125 Z M16.0625,22.0416667 L18.9166667,22.0416667 C18.875,21.4791667 18.875,20.8958333 18.875,20.3333333 L18.875,12.2708333 C18.875,11.7916667 18.875,11.3125 18.9166667,10.8333333 L16.0625,10.8333333 C16.125,11.3125 16.125,11.8333333 16.125,12.3125 L16.125,20.4791667 C16.125,21 16.125,21.5208333 16.0625,22.0416667 Z M26.6666667,21.7083333 L26.6666667,19.1875 C26.25,19.4791667 25.75,19.625 25.25,19.625 C24.3125,19.625 24.1458333,18.6875 24.1458333,17.9166667 L24.1458333,13.2291667 L25.2291667,13.2291667 C25.6041667,13.2291667 25.9583333,13.2708333 26.3333333,13.2708333 L26.3333333,10.8333333 L24.1458333,10.8333333 C24.1458333,10.125 24.1041667,9.41666667 24.2083333,8.70833333 L21.2916667,8.70833333 C21.3541667,9.08333333 21.375,9.45833333 21.375,9.85416667 L21.375,10.8333333 L20.125,10.8333333 L20.125,13.2708333 C20.375,13.25 20.625,13.2083333 20.8958333,13.2083333 C21.0416667,13.2083333 21.2083333,13.2291667 21.375,13.2291667 L21.375,13.2708333 L21.3333333,13.2708333 L21.3333333,17.7916667 C21.3333333,20.0416667 21.6666667,22.2083333 24.4166667,22.2083333 C25.1875,22.2083333 25.9791667,22.0833333 26.6666667,21.7083333 Z M19.25,7 C19.25,6.02083333 18.5208333,5.10416667 17.5,5.10416667 C16.4791667,5.10416667 15.7291667,6 15.7291667,7 C15.7291667,7.97916667 16.5,8.85416667 17.5,8.85416667 C18.5,8.85416667 19.25,7.95833333 19.25,7 Z M32,6 L32,26 C32,29.3125 29.3125,32 26,32 L6,32 C2.6875,32 0,29.3125 0,26 L0,6 C0,2.6875 2.6875,0 6,0 L26,0 C29.3125,0 32,2.6875 32,6 Z"/>
  </defs>
  <g fill="none" fill-rule="evenodd">
    <use fill="#2A3042" xlink:href="#github-a"/>
  </g>
</svg>
