<svg xmlns="http://www.w3.org/2000/svg" xmlns:xlink="http://www.w3.org/1999/xlink" width="32" height="32" viewBox="0 0 32 32">
  <defs>
    <path id="hang-up-a" d="M15.8077443,13.08015 C13.3130713,13.08015 10.7845684,13.7798991 10.0799207,14.111722 C9.9084279,14.192479 9.91735541,14.3661955 9.91735541,14.3932932 C9.91735541,15.1898362 9.92092855,16.1746482 9.92807484,17.3477292 C9.94276729,17.6105629 9.99749155,17.9957392 9.56380163,18.7469122 C9.13011171,19.4980852 4.87052523,22.5 4.51790639,22.5 C4.16528754,22.5 3.63869062,22.4977548 1.81703768,20.5342172 C-0.004615267,18.5706796 5.88787358e-08,18.116885 5.88787856e-08,17.7458256 C5.88788105e-08,17.3747662 0.124884026,17.0578244 0.374655706,16.7949907 C2.49036876,14.5686345 4.92927917,12.8679712 7.6914601,11.6929499 C10.3507939,10.564311 13.1202795,10 16,10 C18.8797206,10 21.6492062,10.564311 24.30854,11.6929499 C27.0707209,12.8679712 29.4820595,14.463809 31.5977725,16.6901652 C31.8475442,16.9529989 32,17.3747662 32,17.7458256 C32,18.116885 31.7849453,18.5985231 30.1300135,20.3823044 C28.4750817,22.1660858 27.5606224,22.5259608 27.0305656,22.2199324 C26.5005089,21.913904 23.4920972,19.9808111 22.9859848,19.4443182 C22.4798724,18.9078253 22.1052209,18.2490706 22.0318794,17.5956065 C22.0657229,16.287712 22.0826446,15.2431029 22.0826446,14.4617789 C22.0826446,14.4135904 22.0949258,14.102759 21.8234029,14.0136153 C20.6840175,13.6395437 18.3024173,13.08015 15.8077443,13.08015 Z"/>
  </defs>
  <g fill="none" fill-rule="evenodd">
    <use fill="#2A3042" xlink:href="#hang-up-a"/>
  </g>
</svg>
