<svg xmlns="http://www.w3.org/2000/svg" xmlns:xlink="http://www.w3.org/1999/xlink" width="32" height="32" viewBox="0 0 32 32">
  <defs>
    <path id="help-a" d="M16,32 C24.836556,32 32,24.836556 32,16 C32,7.163444 24.836556,0 16,0 C7.163444,0 0,7.163444 0,16 C0,24.836556 7.163444,32 16,32 Z M14.2903458,17.5488914 C14.6275234,16.7257814 15.2448466,15.9150798 16.142334,15.1167623 C17.0398214,14.3184448 17.6373109,13.6688919 17.9348206,13.168084 C18.2323302,12.6672761 18.3810828,12.1392044 18.3810828,11.5838531 C18.3810828,9.9078822 17.6075693,9.06990931 16.0605193,9.06990931 C15.3266622,9.06990931 14.7390895,9.2955174 14.2977835,9.74674034 C13.9434926,10.1089928 13.7250288,10.5814971 13.6423884,11.1642628 C13.6058377,11.422012 13.3948847,12.5938848 11.3637935,12.593889 C9.33270223,12.5938933 9.30504913,11.443307 9.30504913,11.233259 C9.40313851,9.50845071 10.0110174,8.15990553 11.1293218,7.16585719 C12.3342358,6.09482252 13.9779518,5.55931321 16.0605193,5.55931321 C18.1629207,5.55931321 19.7942407,6.06755121 20.9545282,7.08404245 C22.1148158,8.10053369 22.6949509,9.53599613 22.6949509,11.3904728 C22.6949509,12.2334168 22.5065309,13.0292431 22.1296854,13.7779757 C21.7528399,14.5267083 21.0933701,15.3572435 20.1512562,16.2696064 L18.9463483,17.4150127 C18.1926572,18.1389529 17.7612747,18.9868426 17.6521878,19.9587074 C17.6187143,20.4691783 17.1949048,20.8661072 16.6833376,20.8661072 L14.1143103,20.8661097 C13.9340161,20.8661097 13.7878587,20.7199523 13.7878587,20.5396581 C13.813117,19.2997545 13.9805887,18.3050631 14.2903458,17.5488914 Z M16.3620965,22.6686321 C17.4109395,22.6686321 18.091261,23.2832456 18.091261,24.2307873 L18.091261,25.0118649 C18.091261,25.9594066 17.4109395,26.5740201 16.3620965,26.5740201 L15.4975142,26.5740201 C14.4486712,26.5740201 13.7683497,25.9594066 13.7683497,25.0118649 L13.7683497,24.2307873 C13.7683497,23.2832456 14.4486712,22.6686321 15.4975142,22.6686321 L16.3620965,22.6686321 Z"/>
  </defs>
  <g fill="none" fill-rule="evenodd">
    <use fill="#2A3042" xlink:href="#help-a"/>
  </g>
</svg>
