<svg xmlns="http://www.w3.org/2000/svg" xmlns:xlink="http://www.w3.org/1999/xlink" width="32" height="32" viewBox="0 0 32 32">
  <defs>
    <path id="idea-a" d="M8.99978416,17.1412212 C7.14854849,15.3263129 6,12.7972854 6,10 C6,4.4771525 10.4771525,0 16,0 C21.5228475,0 26,4.4771525 26,10 C26,12.7896898 24.8576805,15.3125765 23.0152805,17.1264211 C22.9914236,17.1499083 22.965971,17.1744387 22.9389228,17.2000124 C22.3395917,17.7666827 22,18.5551091 22,19.37992 L22,21 C22,23.209139 20.209139,25 18,25 L14,25 C11.790861,25 10,23.209139 10,21 L9.99998437,19.380155 C9.99998437,18.5563405 9.66120929,17.7687762 9.06313632,17.202226 C9.04088702,17.1811494 9.01976963,17.1608145 8.99978416,17.1412212 Z M11.0999815,14.9989861 C12.3224324,16.157389 12.9999844,17.7325217 12.9999844,19.3801421 L13,21 C13,21.5522847 13.4477153,22 14,22 L18,22 C18.5522847,22 19,21.5522847 19,21 L19,19.37992 C19,17.7303066 19.6791754,16.1534613 20.8778544,15.0201048 C22.2405754,13.6792283 23,11.9036402 23,10 C23,6.13400675 19.8659932,3 16,3 C12.1340068,3 9,6.13400675 9,10 C9,11.9087988 9.76359196,13.688821 11.0999815,14.9989861 Z M13.8756751,10.9874181 L12.8291447,12.5551945 C12.5225192,13.0145411 11.9015762,13.138346 11.4422296,12.8317205 C10.9828831,12.5250951 10.8590781,11.9041521 11.1657036,11.4448055 L13.1682795,8.4448055 C13.594424,7.80641096 14.5511644,7.86626082 14.8944272,8.5527864 L16,10.763932 L17.1055728,8.5527864 C17.4491248,7.86568239 18.4069563,7.80646471 18.8325285,8.44601781 L20.8287923,11.4460178 C21.1347482,11.9058106 21.0100388,12.5265726 20.550246,12.8325285 C20.0904532,13.1384844 19.4696912,13.013775 19.1637353,12.5539822 L18.1230315,10.9900049 L16.8944272,13.4472136 C16.5259029,14.1842621 15.4740971,14.1842621 15.1055728,13.4472136 L13.8756751,10.9874181 Z M16,32 C13.8380827,32 11.8188959,30.6124993 11.1954756,29 C11.1627907,28.9154594 11.1460253,28.8256023 11.1460253,28.7349633 C11.1460253,28.3290466 11.4750858,27.999986 11.8810026,27.999986 L20.1168207,28.0000451 C20.2076274,28.0000451 20.2976468,28.0168845 20.3823133,28.0497092 C20.7605169,28.1963367 20.9482465,28.6217964 20.801619,29 C20.1772832,30.6103806 18.163459,32 16,32 Z"/>
  </defs>
  <g fill="none" fill-rule="evenodd">
    <mask id="idea-b" fill="#fff">
      <use xlink:href="#idea-a"/>
    </mask>
    <use fill="#979797" fill-rule="nonzero" xlink:href="#idea-a"/>
    <g fill="#2E3192" mask="url(#idea-b)">
      <rect width="32" height="32"/>
    </g>
  </g>
</svg>
