<svg xmlns="http://www.w3.org/2000/svg" xmlns:xlink="http://www.w3.org/1999/xlink" width="32" height="32" viewBox="0 0 32 32">
  <defs>
    <path id="incoming-call-a" d="M8.4263042,18.8182255 C9.85010979,21.2843291 11.9849589,23.3845016 12.7151512,23.8916956 C12.8928608,24.0151333 13.0594927,23.9071613 13.0862801,23.8916956 C13.8737009,23.437078 14.8451954,22.8714758 16.0007634,22.194889 C16.2522016,22.0303555 16.6017336,21.756423 17.5918275,21.756423 C18.5819214,21.756423 23.9805673,24.2539202 24.1818204,24.6025008 C24.3830735,24.9510814 24.6814031,25.472929 23.7800395,28.3943864 C22.8786758,31.3158437 22.4274439,31.5702793 22.060634,31.7820571 C21.6938241,31.9938349 21.3092359,32.051272 20.9068579,31.95437 C17.4984796,31.1335533 14.4253128,29.6932075 11.6872653,27.6332892 C9.05376794,25.648568 6.91526781,23.2328729 5.2717008,20.3861313 C3.62813379,17.5393898 2.6053305,14.4795467 2.20326026,11.2065105 C1.78834243,7.80533272 1.98966097,4.51080326 2.98300201,1.14865274 C3.10027143,0.751732196 3.43019622,0.360303595 3.79700616,0.148525776 C4.16381611,-0.0632520437 4.76267843,-0.125549576 7.47056471,0.49235725 C10.178451,1.11026408 11.0561217,1.80885642 11.0561217,2.50750506 C11.0561217,3.2061537 10.8621829,7.28340289 10.6206917,8.08991627 C10.3792006,8.89642966 9.94181803,9.64276725 9.33769626,10.0882258 C8.02546425,10.8012355 6.98316021,11.380706 6.21078414,11.8266376 C6.16314741,11.8541407 5.84886637,12.0194035 5.91571213,12.3386947 C6.19621547,13.6785287 7.0024986,16.3521219 8.4263042,18.8182255 Z M27.0346806,4.32223689 C27.8592343,3.7660684 28.754826,3.94015378 29.3109945,4.76470748 L29.6777631,5.30846436 C30.2339316,6.13301806 30.0598462,7.0286097 29.2352925,7.58477819 L21.7079738,12.6620188 C21.5578194,12.7632992 21.5181993,12.9671273 21.6194796,13.1172816 C21.6677589,13.1888585 21.7423166,13.2385093 21.8269737,13.2554596 L25.3952635,13.9699156 C25.7994742,14.0508481 26.0632937,14.4419766 25.9869131,14.8470722 C25.6245905,16.7687009 24.1458507,17.7661235 22.2284191,17.3822084 L15.4197789,16.0189576 C14.3873157,15.8122341 13.8441664,15.0069821 14.0392632,13.9722589 L15.3258406,7.14871483 C15.6881632,5.22708608 17.1669029,4.22966352 19.0843345,4.61357866 C19.4885453,4.69451121 19.7523648,5.0856397 19.6759841,5.49073525 L19.0017113,9.06683585 C18.9681527,9.24481858 19.0852316,9.41630671 19.2632143,9.44986531 C19.3480567,9.46586232 19.4357849,9.44775675 19.5073619,9.39947751 L27.0346806,4.32223689 Z"/>
  </defs>
  <g fill="none" fill-rule="evenodd">
    <use fill="#2A3042" xlink:href="#incoming-call-a"/>
  </g>
</svg>
