<svg xmlns="http://www.w3.org/2000/svg" xmlns:xlink="http://www.w3.org/1999/xlink" width="32" height="32" viewBox="0 0 32 32">
  <defs>
    <path id="info-a" d="M17,0 C18.8196817,0 20,1.51755213 20,3.85714286 L20,5.14285714 C20,7.48244787 18.8196817,9 17,9 L14,9 C12.1803183,9 11,7.48244787 11,5.14285714 L11,3.85714286 C11,1.51755213 12.1803183,0 14,0 L17,0 Z M23.5454545,27.6363636 C23.5454545,28.2793956 23.5454545,28.7616696 23.5454545,29.0831856 C23.5454545,29.4081343 23.5454545,29.8955572 23.5454545,30.5454545 C23.5454545,31.3409091 22.8863636,32 22.0909091,32 L10.4545455,32 C9.65909091,32 9,31.3409091 9,30.5454545 L9,27.6363636 C9,26.8409091 9.65909091,26.1818182 10.4545455,26.1818182 L11.9090909,26.1818182 L11.9090909,17.4545455 L10.4545455,17.4545455 C9.65909091,17.4545455 9,16.7954545 9,16 L9,13.0909091 C9,12.2954545 9.65909091,11.6363636 10.4545455,11.6363636 L19.1818182,11.6363636 C19.9772727,11.6363636 20.6363636,12.2954545 20.6363636,13.0909091 L20.6363636,26.1818182 L22.0909091,26.1818182 C22.8863636,26.1818182 23.5454545,26.8409091 23.5454545,27.6363636 Z"/>
  </defs>
  <g fill="none" fill-rule="evenodd">
    <use fill="#2A3042" xlink:href="#info-a"/>
  </g>
</svg>
