<svg xmlns="http://www.w3.org/2000/svg" xmlns:xlink="http://www.w3.org/1999/xlink" width="32" height="32" viewBox="0 0 32 32">
  <defs>
    <path id="lock-on-a" d="M15,22.8292943 L15,28 L17,28 L17,22.8292943 C18.1651924,22.4174579 19,21.3062188 19,20 C19,18.3431458 17.6568542,17 16,17 C14.3431458,17 13,18.3431458 13,20 C13,21.3062188 13.8348076,22.4174579 15,22.8292943 Z M8,12 L8,8 C8,3.581722 11.581722,8.11624501e-16 16,0 C20.418278,-8.11624501e-16 24,3.581722 24,8 L24,12 L26,12 C27.1045695,12 28,12.8954305 28,14 L28,27 C28,29.7614237 25.7614237,32 23,32 L9,32 C6.23857625,32 4,29.7614237 4,27 L4,14 C4,12.8954305 4.8954305,12 6,12 L8,12 Z M11,12 L21,12 L21,8 C21,5.23857625 18.7614237,3 16,3 C13.2385763,3 11,5.23857625 11,8 L11,12 Z"/>
  </defs>
  <g fill="none" fill-rule="evenodd">
    <use fill="#2A3042" xlink:href="#lock-on-a"/>
  </g>
</svg>
