<svg xmlns="http://www.w3.org/2000/svg" xmlns:xlink="http://www.w3.org/1999/xlink" width="32" height="32" viewBox="0 0 32 32">
  <defs>
    <path id="login-a" d="M18.1321163,4.30411516 C17.9318293,4.27917154 17.7224368,4.2663803 17.5047074,4.2663803 L8.09357439,4.2663803 C6.09562666,4.2663803 4.79967784,5.34345776 4.79967784,7.00397432 L4.79967784,24.9938779 C4.79967784,26.6543945 6.09562666,27.7314719 8.09357439,27.7314719 L17.5047074,27.7314719 C17.7224368,27.7314719 17.9318293,27.7186807 18.1321163,27.6937371 L18.1321163,28.2647695 C18.1321163,30.5291102 16.6633743,31.9978522 14.3990335,31.9978522 L3.73308276,31.9978522 C1.46874199,31.9978522 0,30.5291102 0,28.2647695 L0,3.73308276 C0,1.46874199 1.46874199,0 3.73308276,0 L14.3990335,0 C16.6633743,0 18.1321163,1.46874199 18.1321163,3.73308276 L18.1321163,4.30411516 Z M29.9391101,17.9791356 L18.1338228,17.9791356 C18.0685389,17.9791356 18.0058449,18.0046726 17.9591414,18.0502882 C17.8603667,18.146762 17.8585015,18.3050423 17.9549754,18.403817 L21.4502646,21.9824669 C21.814562,22.3554526 21.814562,22.9557689 21.4502646,23.3287546 C19.7221679,25.0980654 17.4803426,25.0980654 15.7522459,23.3287546 L9.615918,17.0460788 C8.68540438,16.0933729 8.68540438,14.8574467 9.615918,13.9047409 L15.7522459,7.62206509 C17.4803426,5.85275426 19.7221679,5.85275426 21.4502646,7.62206509 C21.814562,7.99505074 21.814562,8.59536712 21.4502646,8.96835276 L17.9549754,12.5470027 C17.9093599,12.5937061 17.8838228,12.6564002 17.8838228,12.7216841 C17.8838228,12.8597552 17.9957517,12.9716841 18.1338228,12.9716841 L29.9391101,12.9716841 C31.1891646,12.9716841 32,13.7925711 32,15.0581222 L32,15.8926975 C32,17.1582486 31.1891646,17.9791356 29.9391101,17.9791356 Z"/>
  </defs>
  <g fill="none" fill-rule="evenodd">
    <use fill="#2A3042" xlink:href="#login-a"/>
  </g>
</svg>
