<svg xmlns="http://www.w3.org/2000/svg" xmlns:xlink="http://www.w3.org/1999/xlink" width="32" height="32" viewBox="0 0 32 32">
  <defs>
    <path id="mail-a" d="M3.20710678,27.2071068 C2.81658249,27.5976311 2.18341751,27.5976311 1.79289322,27.2071068 C1.40236893,26.8165825 1.40236893,26.1834175 1.79289322,25.7928932 L8.79289322,18.7928932 C9.18341751,18.4023689 9.81658249,18.4023689 10.2071068,18.7928932 C10.5976311,19.1834175 10.5976311,19.8165825 10.2071068,20.2071068 L3.20710678,27.2071068 Z M30.2071068,25.7928932 C30.5976311,26.1834175 30.5976311,26.8165825 30.2071068,27.2071068 C29.8165825,27.5976311 29.1834175,27.5976311 28.7928932,27.2071068 L21.7928932,20.2071068 C21.4023689,19.8165825 21.4023689,19.1834175 21.7928932,18.7928932 C22.1834175,18.4023689 22.8165825,18.4023689 23.2071068,18.7928932 L30.2071068,25.7928932 Z M15.2839999,20.544254 L14.6033522,19.8461538 L1.78399986,6.69810014 C1.3984498,6.30266418 1.40646391,5.66954992 1.80189986,5.28399986 C2.19733582,4.8984498 2.83045008,4.90646391 3.21600014,5.30189986 L15.2839999,17.6793355 C15.6695499,18.0747714 16.3026642,18.0827855 16.6981001,17.6972355 C16.7041421,17.6913446 16.7101092,17.6853774 16.7160001,17.6793355 L28.7839999,5.30189986 C29.1695499,4.90646391 29.8026642,4.8984498 30.1981001,5.28399986 C30.5935361,5.66954992 30.6015502,6.30266418 30.2160001,6.69810014 L17.3966478,19.8461538 L16.7160001,20.544254 C16.3304501,20.9396899 15.6973358,20.947704 15.3018999,20.562154 C15.2958579,20.5562631 15.2898908,20.5502959 15.2839999,20.544254 Z M4.85714286,7 C3.83147118,7 3,7.80588745 3,8.8 L3,23.2 C3,24.1941125 3.83147118,25 4.85714286,25 L27.1428571,25 C28.1685288,25 29,24.1941125 29,23.2 L29,8.8 C29,7.80588745 28.1685288,7 27.1428571,7 L4.85714286,7 Z M4,4 L28,4 C30.209139,4 32,5.790861 32,8 L32,24 C32,26.209139 30.209139,28 28,28 L4,28 C1.790861,28 0,26.209139 0,24 L0,8 C-4.4408921e-16,5.790861 1.790861,4 4,4 Z"/>
  </defs>
  <g fill="none" fill-rule="evenodd">
    <use fill="#2A3042" fill-rule="nonzero" xlink:href="#mail-a"/>
  </g>
</svg>
