<svg xmlns="http://www.w3.org/2000/svg" xmlns:xlink="http://www.w3.org/1999/xlink" width="32" height="32" viewBox="0 0 32 32">
  <defs>
    <path id="merge-a" d="M17.0340599,23.1918502 L9.13933875,31.3404125 C8.2598888,32.2198625 7.11899596,32.2198625 6.23954601,31.3404125 L5.65958746,30.760454 C4.78013751,29.881004 4.78013751,28.7401112 5.65958746,27.8606612 L12.9583337,20.561915 L12.9583337,9.88817005 C12.9583337,9.58618618 12.7135274,9.34137989 12.4115435,9.34137989 C12.2675911,9.34137989 12.1294458,9.39814694 12.0270852,9.49936254 L9.02402914,12.4688266 C8.65747463,12.8312808 8.06750911,12.8312808 7.7009546,12.4688266 C5.96215079,10.7494729 5.96215079,8.51898986 7.7009546,6.79963624 L13.8753025,0.694354349 C14.8115814,-0.23145145 16.0261974,-0.23145145 16.9624764,0.694354349 L23.1368243,6.79963624 C24.8756281,8.51898986 24.8756281,10.7494729 23.1368243,12.4688266 C22.7702697,12.8312808 22.1803042,12.8312808 21.8137497,12.4688266 L18.8106936,9.49936254 C18.5959612,9.28703207 18.2497583,9.28897927 18.0374278,9.50371172 C17.9362122,9.60607232 17.8794452,9.74421766 17.8794452,9.88817005 L17.8794452,21.1043553 C17.8794452,21.8835706 17.5762627,22.6322139 17.0340599,23.1918502 Z M17.0899894,26.2901932 C19.3062784,24.2373855 19.8651388,22.9938391 19.7898241,22.3441178 C21.0437956,23.5980893 22.4585402,24.9659025 25.4217101,27.8606612 C26.3011601,28.7401112 26.3011601,29.881004 25.4217101,30.760454 L24.8417516,31.3404125 C23.9623016,32.2198625 22.8214088,32.2198625 21.9419588,31.3404125 L17.0899894,26.2901932 Z"/>
  </defs>
  <g fill="none" fill-rule="evenodd">
    <use fill="#2A3042" xlink:href="#merge-a"/>
  </g>
</svg>
