<svg xmlns="http://www.w3.org/2000/svg" xmlns:xlink="http://www.w3.org/1999/xlink" width="32" height="32" viewBox="0 0 32 32">
  <defs>
    <path id="microphone-a" d="M25.0657396,14.6965866 C25.1048487,13.9559786 25.5525451,13.5856747 26.4088288,13.5856747 C27.2651125,13.5856747 27.7318704,13.9559786 27.8091024,14.6965866 C27.8091024,16.5255043 27.3649433,18.2498865 26.4766119,19.8697851 C25.6144078,21.4113014 24.4321609,22.6980564 22.9298357,23.7300885 C21.4275104,24.7621206 19.7880409,25.3957005 18.011378,25.630847 L18.011378,29.4282148 C17.9467411,30.4760716 17.4164776,31 16.4205874,31 C15.4246972,31 14.8837429,30.4760716 14.7977244,29.4282148 L14.7977244,25.630847 C13.0210615,25.3957005 11.381592,24.7621206 9.87926675,23.7300885 C8.3769415,22.6980564 7.19469458,21.4113014 6.33249052,19.8697851 C5.44415906,18.2498865 5,16.5255043 5,14.6965866 C5.11093038,13.9559786 5.57921135,13.5856747 6.40484291,13.5856747 C7.23047447,13.5856747 7.67664777,13.9559786 7.74336283,14.6965866 C7.74336283,16.2903577 8.16139489,17.7273429 8.99747155,19.0075853 C9.78129343,20.2355729 10.8329053,21.2022721 12.1523388,21.9077118 C13.4717723,22.6131514 14.8891623,22.965866 16.4045512,22.965866 C17.9199402,22.965866 19.3373301,22.6131514 20.6567636,21.9077118 C21.9761971,21.2022721 23.027809,20.2355729 23.8116308,19.0075853 C24.6477075,17.7273429 25.0657396,16.2903577 25.0657396,14.6965866 Z M16.4045512,19.5954488 C15.5423471,19.5954488 14.73241,19.3733693 13.9747155,18.9292035 C13.2170211,18.4850378 12.6161,17.8841167 12.1719343,17.1264223 C11.7277685,16.3687278 11.505689,15.5587907 11.505689,14.6965866 L11.505689,4.8988622 C11.505689,4.03665814 11.7277685,3.22672102 12.1719343,2.46902655 C12.6161,1.71133207 13.2170211,1.11041099 13.9747155,0.666245259 C14.73241,0.222079532 15.5423471,0 16.4045512,0 C17.2667553,0 18.0766924,0.222079532 18.8343869,0.666245259 C19.5920813,1.11041099 20.1930024,1.71133207 20.6371681,2.46902655 C21.0813339,3.22672102 21.3034134,4.03665814 21.3034134,4.8988622 L21.3034134,14.6965866 C21.3034134,15.5587907 21.0813339,16.3687278 20.6371681,17.1264223 C20.1930024,17.8841167 19.5920813,18.4850378 18.8343869,18.9292035 C18.0766924,19.3733693 17.2667553,19.5954488 16.4045512,19.5954488 Z"/>
  </defs>
  <g fill="none" fill-rule="evenodd">
    <use fill="#000" xlink:href="#microphone-a"/>
  </g>
</svg>
