<svg xmlns="http://www.w3.org/2000/svg" xmlns:xlink="http://www.w3.org/1999/xlink" width="32" height="32" viewBox="0 0 32 32">
  <defs>
    <path id="missed-call-a" d="M8.4263042,18.8182255 C9.85010979,21.2843291 11.9849589,23.3845016 12.7151512,23.8916956 C12.8928608,24.0151333 13.0594927,23.9071613 13.0862801,23.8916956 C13.8737009,23.437078 14.8451954,22.8714758 16.0007634,22.194889 C16.2522016,22.0303555 16.6017336,21.756423 17.5918275,21.756423 C18.5819214,21.756423 23.9805673,24.2539202 24.1818204,24.6025008 C24.3830735,24.9510814 24.6814031,25.472929 23.7800395,28.3943864 C22.8786758,31.3158437 22.4274439,31.5702793 22.060634,31.7820571 C21.6938241,31.9938349 21.3092359,32.051272 20.9068579,31.95437 C17.4984796,31.1335533 14.4253128,29.6932075 11.6872653,27.6332892 C9.05376794,25.648568 6.91526781,23.2328729 5.2717008,20.3861313 C3.62813379,17.5393898 2.6053305,14.4795467 2.20326026,11.2065105 C1.78834243,7.80533272 1.98966097,4.51080326 2.98300201,1.14865274 C3.10027143,0.751732196 3.43019622,0.360303595 3.79700616,0.148525776 C4.16381611,-0.0632520437 4.76267843,-0.125549576 7.47056471,0.49235725 C10.178451,1.11026408 11.0561217,1.80885642 11.0561217,2.50750506 C11.0561217,3.2061537 10.8621829,7.28340289 10.6206917,8.08991627 C10.3792006,8.89642966 9.94181803,9.64276725 9.33769626,10.0882258 C8.02546425,10.8012355 6.98316021,11.380706 6.21078414,11.8266376 C6.16314741,11.8541407 5.84886637,12.0194035 5.91571213,12.3386947 C6.19621547,13.6785287 7.0024986,16.3521219 8.4263042,18.8182255 Z M20.4952026,9.5 L16.9152071,5.92000458 C16.3615976,5.36639505 16.3615976,4.46881667 16.9152071,3.91520714 C17.4688167,3.36159762 18.3663951,3.36159762 18.9200046,3.91520714 L22.5,7.49520256 L26.0799954,3.91520714 C26.6336049,3.36159762 27.5311833,3.36159762 28.0847929,3.91520714 C28.6384024,4.46881667 28.6384024,5.36639505 28.0847929,5.92000458 L24.5047974,9.5 L28.0847929,13.0799954 C28.6384024,13.6336049 28.6384024,14.5311833 28.0847929,15.0847929 C27.5311833,15.6384024 26.6336049,15.6384024 26.0799954,15.0847929 L22.5,11.5047974 L18.9200046,15.0847929 C18.3663951,15.6384024 17.4688167,15.6384024 16.9152071,15.0847929 C16.3615976,14.5311833 16.3615976,13.6336049 16.9152071,13.0799954 L20.4952026,9.5 Z"/>
  </defs>
  <g fill="none" fill-rule="evenodd">
    <use fill="#2A3042" xlink:href="#missed-call-a"/>
  </g>
</svg>
