<svg xmlns="http://www.w3.org/2000/svg" xmlns:xlink="http://www.w3.org/1999/xlink" width="32" height="32" viewBox="0 0 32 32">
  <defs>
    <path id="mute-a" d="M17.9173333,29.2723945 C17.9191032,29.3038712 17.9200001,29.3355813 17.9200001,29.3675008 C17.9200001,30.2884356 17.1734349,31.0350008 16.2525001,31.0350008 C15.3320696,31.0350008 14.5858178,30.2892531 14.5850007,29.3690137 L14.5826667,29.3690137 L14.5826667,26.4576485 C12.7391019,26.2149166 11.0378967,25.5608987 9.479,24.4955752 C7.92010332,23.4302517 6.69333781,22.1019886 5.79866667,20.5107459 C4.87688428,18.8385926 4.416,17.0585851 4.416,15.17067 C4.43541636,14.3345976 4.90999286,13.9165613 5.83972952,13.9165613 C6.76946618,13.9165613 7.24377856,14.3345976 7.26266667,15.17067 C7.26266667,16.8158531 7.69644011,18.2991927 8.564,19.6207332 C9.3773374,20.8883334 10.4685487,21.8862163 11.8376667,22.6144121 C13.2067846,23.3426079 14.6775477,23.7067004 16.25,23.7067004 C17.5784511,23.7067004 18.8797714,23.4100325 20.154,22.8166877 L17.348,20.0657396 C16.9684425,20.1736204 16.6024462,20.2275601 16.25,20.2275601 C15.3553289,20.2275601 14.5148928,19.9983167 13.7286667,19.539823 C12.9424405,19.0813294 12.3188912,18.4610237 11.858,17.6788875 C11.3971088,16.8967513 11.1666667,16.0606871 11.1666667,15.17067 L11.1666667,13.9165613 L1,3.80278129 L3.15533333,1.65865992 L31.5,29.8558786 L29.3446667,32 L22.2686667,24.9608091 C21.1571056,25.6620347 19.7066756,26.1609762 17.9173333,26.4576485 L17.9173333,29.2723945 Z M21.3333333,15.4134008 L11.1666667,5.38053097 L11.1666667,5.05689001 C11.1666667,4.16687292 11.3971088,3.3308088 11.858,2.54867257 C12.3188912,1.76653633 12.9424405,1.1462307 13.7286667,0.687737042 C14.5148928,0.229243388 15.3553289,0 16.25,0 C17.1446711,0 17.9851072,0.229243388 18.7713333,0.687737042 C19.5575595,1.1462307 20.1811088,1.76653633 20.642,2.54867257 C21.1028912,3.3308088 21.3333333,4.16687292 21.3333333,5.05689001 L21.3333333,15.4134008 Z M28.084,15.17067 C28.084,17.0855553 27.5824495,18.9329873 26.5793333,20.7130215 L24.5053333,18.5689001 C24.9933358,17.544032 25.2373333,16.4112999 25.2373333,15.17067 C25.2489386,14.288447 25.7230583,13.8473355 26.6596923,13.8473355 C27.5963263,13.8473355 28.0710955,14.288447 28.084,15.17067 Z"/>
  </defs>
  <g fill="none" fill-rule="evenodd">
    <use fill="#2A3042" transform="matrix(-1 0 0 1 32.5 0)" xlink:href="#mute-a"/>
  </g>
</svg>
