<svg xmlns="http://www.w3.org/2000/svg" xmlns:xlink="http://www.w3.org/1999/xlink" width="32" height="32" viewBox="0 0 32 32">
  <defs>
    <path id="on-hold-a" d="M7.05263158,1 C8.84038902,1 10,2.65244565 10,5.2 L10,26.8 C10,29.3475543 8.84038902,31 7.05263158,31 L4.94736842,31 C3.15961098,31 2,29.3475543 2,26.8 L2,5.2 C2,2.65244565 3.15961098,1 4.94736842,1 L7.05263158,1 Z M27.0526316,1 C28.840389,1 30,2.65244565 30,5.2 L30,26.8 C30,29.3475543 28.840389,31 27.0526316,31 L24.9473684,31 C23.159611,31 22,29.3475543 22,26.8 L22,5.2 C22,2.65244565 23.159611,1 24.9473684,1 L27.0526316,1 Z"/>
  </defs>
  <g fill="none" fill-rule="evenodd">
    <use fill="#2A3042" xlink:href="#on-hold-a"/>
  </g>
</svg>
