<svg xmlns="http://www.w3.org/2000/svg" xmlns:xlink="http://www.w3.org/1999/xlink" width="32" height="32" viewBox="0 0 32 32">
  <defs>
    <path id="outgoing-call-a" d="M8.4263042,18.8182255 C9.85010979,21.2843291 11.9849589,23.3845016 12.7151512,23.8916956 C12.8928608,24.0151333 13.0594927,23.9071613 13.0862801,23.8916956 C13.8737009,23.437078 14.8451954,22.8714758 16.0007634,22.194889 C16.2522016,22.0303555 16.6017336,21.756423 17.5918275,21.756423 C18.5819214,21.756423 23.9805673,24.2539202 24.1818204,24.6025008 C24.3830735,24.9510814 24.6814031,25.472929 23.7800395,28.3943864 C22.8786758,31.3158437 22.4274439,31.5702793 22.060634,31.7820571 C21.6938241,31.9938349 21.3092359,32.051272 20.9068579,31.95437 C17.4984796,31.1335533 14.4253128,29.6932075 11.6872653,27.6332892 C9.05376794,25.648568 6.91526781,23.2328729 5.2717008,20.3861313 C3.62813379,17.5393898 2.6053305,14.4795467 2.20326026,11.2065105 C1.78834243,7.80533272 1.98966097,4.51080326 2.98300201,1.14865274 C3.10027143,0.751732196 3.43019622,0.360303595 3.79700616,0.148525776 C4.16381611,-0.0632520437 4.76267843,-0.125549576 7.47056471,0.49235725 C10.178451,1.11026408 11.0561217,1.80885642 11.0561217,2.50750506 C11.0561217,3.2061537 10.8621829,7.28340289 10.6206917,8.08991627 C10.3792006,8.89642966 9.94181803,9.64276725 9.33769626,10.0882258 C8.02546425,10.8012355 6.98316021,11.380706 6.21078414,11.8266376 C6.16314741,11.8541407 5.84886637,12.0194035 5.91571213,12.3386947 C6.19621547,13.6785287 7.0024986,16.3521219 8.4263042,18.8182255 Z M16.9653194,17.1412687 C16.1407657,17.6974372 15.245174,17.5233518 14.6890055,16.6987981 L14.3222369,16.1550413 C13.7660684,15.3304876 13.9401538,14.4348959 14.7647075,13.8787274 L22.2920262,8.80148681 C22.4421806,8.70020644 22.4818007,8.49637836 22.3805204,8.34622404 C22.3322411,8.27464713 22.2576834,8.22499636 22.1730263,8.20804601 L18.6047365,7.49359002 C18.2005258,7.41265747 17.9367063,7.02152898 18.0130869,6.61643343 C18.3754095,4.69480468 19.8541493,3.69738212 21.7715809,4.08129726 L28.5802211,5.44454803 C29.6126843,5.65127157 30.1558336,6.45652356 29.9607368,7.49124674 L28.6741594,14.3147908 C28.3118368,16.2364195 26.8330971,17.2338421 24.9156655,16.849927 C24.5114547,16.7689944 24.2476352,16.3778659 24.3240159,15.9727704 L24.9982887,12.3966698 C25.0318473,12.218687 24.9147684,12.0471989 24.7367857,12.0136403 C24.6519433,11.9976433 24.5642151,12.0157489 24.4926381,12.0640281 L16.9653194,17.1412687 Z"/>
  </defs>
  <g fill="none" fill-rule="evenodd">
    <use fill="#2A3042" xlink:href="#outgoing-call-a"/>
  </g>
</svg>
