<svg xmlns="http://www.w3.org/2000/svg" xmlns:xlink="http://www.w3.org/1999/xlink" width="32" height="32" viewBox="0 0 32 32">
  <defs>
    <path id="phone-circle-a" d="M16,32 C7.163444,32 0,24.836556 0,16 C0,7.163444 7.163444,0 16,0 C24.836556,0 32,7.163444 32,16 C32,24.836556 24.836556,32 16,32 Z M16,29 C23.1797017,29 29,23.1797017 29,16 C29,8.82029825 23.1797017,3 16,3 C8.82029825,3 3,8.82029825 3,16 C3,23.1797017 8.82029825,29 16,29 Z M13.7946495,18.2882674 C14.9805234,19.4741413 16.5151133,20.3434623 17.0078125,20.5206892 C17.1277226,20.5638216 17.2060571,20.4769995 17.2189384,20.4641182 C17.597585,20.0854716 18.0640291,19.6156304 18.6182707,19.0545947 C18.7362278,18.9226691 18.8933123,18.7135569 19.4565516,18.5626374 C20.019791,18.4117178 23.4716362,19.0095677 23.639258,19.1771895 C23.8068798,19.3448113 24.0561369,19.596203 23.9886903,21.3955405 C23.9212436,23.1948781 23.7033327,23.4084011 23.526945,23.5847888 C23.3505573,23.7611765 23.1405299,23.8524735 22.8968566,23.8586827 C20.8327998,23.9112784 18.8650018,23.5603434 16.9934036,22.8058672 C15.1927435,22.0782323 13.6079817,21.0299751 12.2390706,19.661064 C10.8701595,18.2921529 9.82190223,16.7073911 9.09426734,14.906731 C8.33979122,13.0351328 7.95213272,11.1302715 8.00472833,9.06621473 C8.01093753,8.82254135 8.13895812,8.54957726 8.31534582,8.37318956 C8.49173352,8.19680186 8.82291515,8.07007808 10.4575503,8.00882784 C12.0921855,7.94757761 12.6979563,8.21120619 12.8044509,8.60864971 C12.9109456,9.00609323 13.4221118,11.3550991 13.4076701,11.8507145 C13.3932283,12.3463299 13.2581763,12.8375725 12.9824078,13.1830686 C12.3445959,13.7887046 11.8399839,14.2772286 11.4685719,14.6486407 C11.4456648,14.6715477 11.2920692,14.8134673 11.3787655,14.9849147 C11.742567,15.7043553 12.6087756,17.1023935 13.7946495,18.2882674 Z"/>
  </defs>
  <g fill="none" fill-rule="evenodd">
    <mask id="phone-circle-b" fill="#fff">
      <use xlink:href="#phone-circle-a"/>
    </mask>
    <use fill="#2A3042" xlink:href="#phone-circle-a"/>
    <g fill="#2E3192" mask="url(#phone-circle-b)">
      <rect width="32" height="32"/>
    </g>
  </g>
</svg>
