<svg xmlns="http://www.w3.org/2000/svg" xmlns:xlink="http://www.w3.org/1999/xlink" width="32" height="32" viewBox="0 0 32 32">
  <defs>
    <path id="phone-a" d="M11.4263042,18.8182255 C12.8501098,21.2843291 14.9849589,23.3845016 15.7151512,23.8916956 C15.8928608,24.0151333 16.0594927,23.9071613 16.0862801,23.8916956 C16.8737009,23.437078 17.8451954,22.8714758 19.0007634,22.194889 C19.2522016,22.0303555 19.6017336,21.756423 20.5918275,21.756423 C21.5819214,21.756423 26.9805673,24.2539202 27.1818204,24.6025008 C27.3830735,24.9510814 27.6814031,25.472929 26.7800395,28.3943864 C25.8786758,31.3158437 25.4274439,31.5702793 25.060634,31.7820571 C24.6938241,31.9938349 24.3092359,32.051272 23.9068579,31.95437 C20.4984796,31.1335533 17.4253128,29.6932075 14.6872653,27.6332892 C12.0537679,25.648568 9.91526781,23.2328729 8.2717008,20.3861313 C6.62813379,17.5393898 5.6053305,14.4795467 5.20326026,11.2065105 C4.78834243,7.80533272 4.98966097,4.51080326 5.98300201,1.14865274 C6.10027143,0.751732196 6.43019622,0.360303595 6.79700616,0.148525776 C7.16381611,-0.0632520437 7.76267843,-0.125549576 10.4705647,0.49235725 C13.178451,1.11026408 14.0561217,1.80885642 14.0561217,2.50750506 C14.0561217,3.2061537 13.8621829,7.28340289 13.6206917,8.08991627 C13.3792006,8.89642966 12.941818,9.64276725 12.3376963,10.0882258 C11.0254643,10.8012355 9.98316021,11.380706 9.21078414,11.8266376 C9.16314741,11.8541407 8.84886637,12.0194035 8.91571213,12.3386947 C9.19621547,13.6785287 10.0024986,16.3521219 11.4263042,18.8182255 Z"/>
  </defs>
  <g fill="none" fill-rule="evenodd">
    <use fill="#2A3042" xlink:href="#phone-a"/>
  </g>
</svg>
