<svg xmlns="http://www.w3.org/2000/svg" xmlns:xlink="http://www.w3.org/1999/xlink" width="32" height="32" viewBox="0 0 32 32">
  <defs>
    <path id="plus-a" d="M13.1282051,13.1282051 L13.1282051,2.87179487 C13.1282051,1.28574636 14.4139515,7.28698271e-16 16,0 C17.5860485,-7.28698271e-16 18.8717949,1.28574636 18.8717949,2.87179487 L18.8717949,13.1282051 L29.1282051,13.1282051 C30.7142536,13.1282051 32,14.4139515 32,16 C32,17.5860485 30.7142536,18.8717949 29.1282051,18.8717949 L18.8717949,18.8717949 L18.8717949,29.1282051 C18.8717949,30.7142536 17.5860485,32 16,32 C14.4139515,32 13.1282051,30.7142536 13.1282051,29.1282051 L13.1282051,18.8717949 L2.87179487,18.8717949 C1.28574636,18.8717949 -2.91479308e-15,17.5860485 0,16 C0,14.4139515 1.28574636,13.1282051 2.87179487,13.1282051 L13.1282051,13.1282051 Z"/>
  </defs>
  <g fill="none" fill-rule="evenodd">
    <mask id="plus-b" fill="#fff">
      <use xlink:href="#plus-a"/>
    </mask>
    <use fill="#2A3042" xlink:href="#plus-a"/>
    <g fill="#2E3192" mask="url(#plus-b)">
      <rect width="32" height="32"/>
    </g>
  </g>
</svg>
