<svg xmlns="http://www.w3.org/2000/svg" xmlns:xlink="http://www.w3.org/1999/xlink" width="32" height="32" viewBox="0 0 32 32">
  <defs>
    <path id="recent-a" d="M15.606855,16 L19.5497478,12.0571072 C19.9402721,11.6665829 20.5734371,11.6665829 20.9639614,12.0571072 C21.3544857,12.4476315 21.3544857,13.0807964 20.9639614,13.4713207 L16.7213207,17.7139614 C16.4961872,17.9390949 16.1904141,18.0344411 15.8969774,18 L6,18 C5.44771525,18 5,17.5522847 5,17 C5,16.4477153 5.44771525,16 6,16 L15.606855,16 Z M5.54340741,4.60444444 C8.18874074,2.46637037 11.5558519,1.18518519 15.2222222,1.18518519 C23.7318519,1.18518519 30.6296296,8.08355556 30.6296296,16.5925926 C30.6296296,25.1022222 23.7318519,32 15.2222222,32 C9.07407407,32 3.76740741,28.3994074 1.2957037,23.1911111 C1.10725926,22.8515556 1,22.461037 1,22.045037 C1,20.736 2.06192593,19.6746667 3.37037037,19.6746667 C4.36237037,19.6746667 5.21925926,20.2802963 5.57303704,21.1448889 C7.28088889,24.7591111 10.9597037,27.2592593 15.2222222,27.2592593 C21.1131852,27.2592593 25.8888889,22.4841481 25.8888889,16.5925926 C25.8888889,10.7022222 21.1131852,5.92592593 15.2222222,5.92592593 C12.9164444,5.92592593 10.7819259,6.65777778 9.03733333,7.90162963 L12.7037037,7.90162963 C13.1131852,7.90162963 13.4444444,8.23348148 13.4444444,8.64237037 C13.4444444,10.5896296 12.1816296,11.8518519 10.234963,11.8518519 L3.32118519,11.8518519 C2.27288889,11.8518519 1.59259259,11.1721481 1.59259259,10.1238519 L1.59259259,3.21007407 C1.59259259,1.26340741 2.85540741,0 4.80266667,0 C5.21155556,0 5.54340741,0.331851852 5.54340741,0.740740741 L5.54340741,4.60444444 Z"/>
  </defs>
  <g fill="none" fill-rule="evenodd">
    <use fill="#2A3042" xlink:href="#recent-a"/>
  </g>
</svg>
