<svg xmlns="http://www.w3.org/2000/svg" xmlns:xlink="http://www.w3.org/1999/xlink" width="32" height="32" viewBox="0 0 32 32">
  <defs>
    <path id="refresh-a" d="M26.0862222,4.60444444 L26.0862222,0.740740741 C26.0862222,0.331851852 26.4180741,0 26.826963,0 C28.7742222,0 30.037037,1.26340741 30.037037,3.21007407 L30.037037,10.1238519 C30.037037,11.1721481 29.3567407,11.8518519 28.3084444,11.8518519 L21.3946667,11.8518519 C19.448,11.8518519 18.1851852,10.5896296 18.1851852,8.64237037 C18.1851852,8.23348148 18.5164444,7.90162963 18.9259259,7.90162963 L22.5922963,7.90162963 C20.8477037,6.65777778 18.7131852,5.92592593 16.4074074,5.92592593 C10.5164444,5.92592593 5.74074074,10.7022222 5.74074074,16.5925926 C5.74074074,22.4841481 10.5164444,27.2592593 16.4074074,27.2592593 C20.6699259,27.2592593 24.3487407,24.7591111 26.0565926,21.1448889 C26.4103704,20.2802963 27.2672593,19.6746667 28.2592593,19.6746667 C29.5677037,19.6746667 30.6296296,20.736 30.6296296,22.045037 C30.6296296,22.461037 30.5223704,22.8515556 30.3339259,23.1911111 C27.8622222,28.3994074 22.5555556,32 16.4074074,32 C7.89777778,32 1,25.1022222 1,16.5925926 C1,8.08355556 7.89777778,1.18518519 16.4074074,1.18518519 C20.0737778,1.18518519 23.4408889,2.46637037 26.0862222,4.60444444"/>
  </defs>
  <g fill="none" fill-rule="evenodd">
    <use fill="#2A3042" xlink:href="#refresh-a"/>
  </g>
</svg>
