<svg xmlns="http://www.w3.org/2000/svg" xmlns:xlink="http://www.w3.org/1999/xlink" width="32" height="32" viewBox="0 0 32 32">
  <defs>
    <path id="settings-a" d="M30,12.96875 C30.4791691,13.0520837 30.9322895,13.2864564 31.359375,13.671875 C31.7864605,14.0572936 32,14.5312472 32,15.09375 L32,17.09375 C32,17.6354194 31.7864605,18.072915 31.359375,18.40625 C30.9322895,18.739585 30.4791691,18.9687494 30,19.09375 L27.40625,19.71875 L26.6875,21.4375 L28.0625,23.75 C28.3333347,24.1666687 28.4999997,24.6458306 28.5625,25.1875 C28.6250003,25.7291694 28.4583353,26.1979147 28.0625,26.59375 L26.65625,28 C26.2604147,28.3958353 25.7812528,28.5781252 25.21875,28.546875 C24.6562472,28.5156248 24.1666687,28.3645847 23.75,28.09375 L21.5,26.65625 L19.6875,27.40625 L19.125,30 C19.0416663,30.4791691 18.8072936,30.9322895 18.421875,31.359375 C18.0364564,31.7864605 17.5625028,32 17,32 L15,32 C14.4583306,32 14.020835,31.7864605 13.6875,31.359375 C13.354165,30.9322895 13.1250006,30.4791691 13,30 L12.375,27.4375 L10.40625,26.625 L8.09375,28.09375 C7.69791469,28.3645847 7.21354453,28.5156248 6.640625,28.546875 C6.06770547,28.5781252 5.59375187,28.3958353 5.21875,28 L3.78125,26.59375 C3.40624813,26.1979147 3.24999969,25.7291694 3.3125,25.1875 C3.37500031,24.6458306 3.53124875,24.1666687 3.78125,23.75 L5.25,21.3125 L4.59375,19.71875 L2,19.09375 C1.52083094,18.9687494 1.06771047,18.739585 0.640625,18.40625 C0.213539531,18.072915 0,17.6354194 0,17.09375 L0,15.09375 C0,14.5312472 0.213539531,14.0572936 0.640625,13.671875 C1.06771047,13.2864564 1.52083094,13.0520837 2,12.96875 L4.5625,12.40625 L5.25,10.6875 L3.78125,8.25 C3.53124875,7.83333125 3.37500031,7.35416937 3.3125,6.8125 C3.24999969,6.27083063 3.40624813,5.80208531 3.78125,5.40625 L5.21875,4 C5.59375187,3.60416469 6.06770547,3.42187484 6.640625,3.453125 C7.21354453,3.48437516 7.69791469,3.63541531 8.09375,3.90625 L10.40625,5.375 L12.34375,4.5625 L13,2 C13.1041672,1.52083094 13.322915,1.06771047 13.65625,0.640625 C13.989585,0.213539531 14.4374972,0 15,0 L17,0 C17.5625028,0 18.0312481,0.213539531 18.40625,0.640625 C18.7812519,1.06771047 19.0208328,1.51041437 19.125,1.96875 L19.6875,4.59375 L21.5,5.34375 L23.75,3.90625 C24.1666687,3.63541531 24.6562472,3.48437516 25.21875,3.453125 C25.7812528,3.42187484 26.2604147,3.60416469 26.65625,4 L28.0625,5.40625 C28.4583353,5.80208531 28.6250003,6.27083063 28.5625,6.8125 C28.4999997,7.35416937 28.3333347,7.83333125 28.0625,8.25 L26.6875,10.5625 L27.4375,12.40625 L30,12.96875 Z M15.9861472,10.6666667 C17.4637881,10.6666667 18.7243815,11.18518 19.7679654,12.2222222 C20.8115492,13.2592644 21.3333333,14.5185111 21.3333333,16 C21.3333333,17.4814889 20.8115492,18.7407356 19.7679654,19.7777778 C18.7243815,20.81482 17.4637881,21.3333333 15.9861472,21.3333333 C14.5269768,21.3333333 13.2756185,20.81482 12.2320346,19.7777778 C11.1884508,18.7407356 10.6666667,17.4814889 10.6666667,16 C10.6666667,14.5185111 11.1884508,13.2592644 12.2320346,12.2222222 C13.2756185,11.18518 14.5269768,10.6666667 15.9861472,10.6666667 Z"/>
  </defs>
  <g fill="none" fill-rule="evenodd">
    <use fill="#2A3042" xlink:href="#settings-a"/>
  </g>
</svg>
