<svg xmlns="http://www.w3.org/2000/svg" xmlns:xlink="http://www.w3.org/1999/xlink" width="32" height="32" viewBox="0 0 32 32">
  <defs>
    <path id="softphone-a" d="M14.8312556,18.2492833 C15.455001,19.3296421 16.3902427,20.2496926 16.7101278,20.4718858 C16.7879794,20.5259618 16.860978,20.4786611 16.8727132,20.4718858 C17.2176691,20.2727254 17.6432646,20.0249445 18.1494996,19.7285432 C18.2596505,19.6564638 18.4127746,19.5364586 18.8465182,19.5364586 C19.2802618,19.5364586 21.6453184,20.6305703 21.733484,20.7832777 C21.8216497,20.935985 21.9523429,21.1645978 21.5574705,22.4444394 C21.1625982,23.7242811 20.964921,23.8357451 20.8042277,23.9285214 C20.6435344,24.0212977 20.4750527,24.0464599 20.2987777,24.0040088 C18.8056241,23.6444227 17.459321,23.0134312 16.2598282,22.1110155 C15.1061369,21.2415423 14.1692958,20.1832666 13.4492765,18.9361566 C12.7292572,17.6890467 12.2811842,16.3485806 12.1050439,14.9147181 C11.9232754,13.4247189 12.0114697,11.9814406 12.4466358,10.5085386 C12.4980096,10.3346543 12.6425441,10.163176 12.8032374,10.0703997 C12.9639307,9.97762334 13.2262823,9.95033183 14.412562,10.2210265 C15.5988418,10.4917212 15.9833347,10.7977628 15.9833347,11.1038291 C15.9833347,11.4098954 15.8983733,13.1960702 15.7925801,13.5493902 C15.6867869,13.9027102 15.4951768,14.2296683 15.2305212,14.4248162 C14.6556543,14.7371739 14.1990383,14.9910302 13.8606732,15.1863854 C13.8398044,15.198434 13.7021231,15.2708329 13.7314071,15.410709 C13.8542909,15.9976679 14.2075101,17.1689245 14.8312556,18.2492833 Z M25.824,13.8777232 C26.9546723,13.9610857 27.9893286,14.2997411 28.928,14.8936994 C29.8666714,15.4876577 30.6133306,16.2639599 31.168,17.2226294 C31.7226694,18.181299 32,19.2233154 32,20.3487101 C32,21.5366266 31.7013363,22.6307439 31.104,23.6310947 C30.5066637,24.6314455 29.6960051,25.423378 28.672,26.006916 C27.6479949,26.590454 26.5280061,26.8822186 25.312,26.8822186 L8,26.8822186 C6.54932608,26.8822186 5.2106728,26.5331431 3.984,25.8349816 C2.7573272,25.1368201 1.78667024,24.1885851 1.072,22.9902482 C0.35732976,21.7919113 0,20.4841807 0,19.067017 C0,17.7540566 0.31466352,16.5296873 0.944,15.3938723 C1.57333648,14.2580573 2.43199456,13.3306627 3.52,12.6116605 C4.60800544,11.8926584 5.81332672,11.4602216 7.136,11.3143371 C7.9893376,9.70960765 9.19465888,8.42792741 10.752,7.46925789 C12.352008,6.48974773 14.1013238,6 16,6 C17.600008,6 19.0933264,6.34386543 20.48,7.03160661 C21.8453402,7.69850714 22.9973286,8.63111187 23.936,9.82944877 C24.8746714,11.0277857 25.5039984,12.377197 25.824,13.8777232 Z"/>
  </defs>
  <g fill="none" fill-rule="evenodd">
    <use fill="#2A3042" xlink:href="#softphone-a"/>
  </g>
</svg>
