<svg xmlns="http://www.w3.org/2000/svg" xmlns:xlink="http://www.w3.org/1999/xlink" width="32" height="32" viewBox="0 0 32 32">
  <defs>
    <path id="star-a" d="M16,2 C16.4991771,2 16.9671487,2.13519178 17.4039286,2.40557938 C17.8615077,2.67596699 18.2046868,3.06074359 18.4334763,3.55992071 L21.3037304,9.64361148 L27.6994053,10.6107623 C28.1985825,10.6939585 28.6405556,10.8967462 29.0253379,11.2191314 C29.4101203,11.5415166 29.6857035,11.947092 29.8520959,12.4358696 C30.0184883,12.9246472 30.0444867,13.4134174 29.930092,13.902195 C29.8156972,14.3909726 29.5817114,14.8225464 29.2281276,15.1969292 L24.5171671,20.001485 L25.64031,26.8027393 C25.7651043,27.6347012 25.5571169,28.3678566 25.0163417,29.0022275 C24.4755665,29.6365984 23.7892082,29.9537791 22.9572464,29.9537791 C22.4996673,29.9537791 22.0628939,29.8393861 21.646913,29.6105966 L16,26.4907552 L10.353087,29.6105966 C9.93710609,29.8393861 9.50033266,29.9537791 9.04275363,29.9537791 C8.21079176,29.9537791 7.52443351,29.6365984 6.98365829,29.0022275 C6.44288307,28.3678566 6.23489572,27.6347012 6.35969,26.8027393 L7.48283292,20.001485 L2.77187237,15.1969292 C2.41828857,14.8225464 2.18430281,14.3909726 2.06990805,13.902195 C1.95551329,13.4134174 1.98151171,12.9246472 2.14790408,12.4358696 C2.31429646,11.947092 2.5898797,11.5415166 2.97466206,11.2191314 C3.35944443,10.8967462 3.80141754,10.6939585 4.30059467,10.6107623 L10.6962696,9.64361148 L13.5665237,3.55992071 C13.7953132,3.06074359 14.1384923,2.67596699 14.5960714,2.40557938 C15.0328513,2.13519178 15.5008229,2 16,2 Z"/>
  </defs>
  <g fill="none" fill-rule="evenodd">
    <use fill="#2A3042" xlink:href="#star-a"/>
  </g>
</svg>
