<svg xmlns="http://www.w3.org/2000/svg" xmlns:xlink="http://www.w3.org/1999/xlink" width="32" height="32" viewBox="0 0 32 32">
  <defs>
    <path id="star-circle-a" d="M16,32 C7.163444,32 0,24.836556 0,16 C0,7.163444 7.163444,0 16,0 C24.836556,0 32,7.163444 32,16 C32,24.836556 24.836556,32 16,32 Z M16,29 C23.1797017,29 29,23.1797017 29,16 C29,8.82029825 23.1797017,3 16,3 C8.82029825,3 3,8.82029825 3,16 C3,23.1797017 8.82029825,29 16,29 Z M16,8 C16.2852441,8 16.5526564,8.07725244 16.8022449,8.23175965 C17.0637187,8.38626685 17.259821,8.60613919 17.3905579,8.89138326 L19.0307031,12.367778 L22.6853745,12.9204356 C22.9706185,12.9679763 23.2231746,13.083855 23.4430503,13.2680751 C23.6629259,13.4522952 23.820402,13.6840525 23.9154834,13.963354 C24.0105647,14.2426555 24.025421,14.5219528 23.9600525,14.8012543 C23.8946841,15.0805558 23.760978,15.3271694 23.5589301,15.5411024 L20.8669526,18.2865629 L21.5087486,22.1729939 C21.5800596,22.6484007 21.4612097,23.0673466 21.1521953,23.4298443 C20.8431809,23.792342 20.4509761,23.9735881 19.9755694,23.9735881 C19.7140956,23.9735881 19.4645108,23.9082206 19.2268074,23.7774838 L16,21.9947172 L12.7731926,23.7774838 C12.5354892,23.9082206 12.2859044,23.9735881 12.0244306,23.9735881 C11.5490239,23.9735881 11.1568191,23.792342 10.8478047,23.4298443 C10.5387903,23.0673466 10.4199404,22.6484007 10.4912514,22.1729939 L11.1330474,18.2865629 L8.44106993,15.5411024 C8.23902204,15.3271694 8.10531589,15.0805558 8.03994746,14.8012543 C7.97457902,14.5219528 7.98943526,14.2426555 8.08451662,13.963354 C8.17959798,13.6840525 8.33707411,13.4522952 8.55694975,13.2680751 C8.77682539,13.083855 9.02938145,12.9679763 9.31462552,12.9204356 L12.9692969,12.367778 L14.6094421,8.89138326 C14.740179,8.60613919 14.9362813,8.38626685 15.1977551,8.23175965 C15.4473436,8.07725244 15.7147559,8 16,8 Z"/>
  </defs>
  <g fill="none" fill-rule="evenodd">
    <mask id="star-circle-b" fill="#fff">
      <use xlink:href="#star-circle-a"/>
    </mask>
    <use fill="#2A3042" xlink:href="#star-circle-a"/>
    <g fill="#2E3192" mask="url(#star-circle-b)">
      <rect width="32" height="32"/>
    </g>
  </g>
</svg>
