<svg xmlns="http://www.w3.org/2000/svg" xmlns:xlink="http://www.w3.org/1999/xlink" width="32" height="32" viewBox="0 0 32 32">
  <defs>
    <path id="switch-calls-a" d="M3.8433074,24.0129908 C4.69482678,25.4878656 5.97159196,26.7438921 6.40828985,27.0472239 C6.51457065,27.1210469 6.61422626,27.0564733 6.63024673,27.0472239 C7.10117064,26.7753358 7.68218138,26.4370725 8.37327894,26.0324339 C8.52365373,25.9340332 8.7326944,25.7702055 9.32482873,25.7702055 C9.91696305,25.7702055 13.1456704,27.2638555 13.2660316,27.4723271 C13.3863928,27.6807988 13.5648114,27.9928944 13.025743,29.7400975 C12.4866746,31.4873006 12.2168114,31.639468 11.9974375,31.7661236 C11.7780636,31.8927791 11.5480573,31.9271299 11.3074116,31.8691768 C9.2690012,31.3782802 7.43106694,30.5168688 5.79355372,29.2849166 C4.21856758,28.0979368 2.93961888,26.6532092 1.95666926,24.9506905 C0.973719645,23.2481718 0.362023198,21.418206 0.121561573,19.4607381 C-0.126583659,17.4266339 -0.00618334824,15.4563118 0.587892943,13.4455483 C0.658026949,13.2081665 0.855341352,12.9740692 1.07471525,12.8474136 C1.29408914,12.720758 1.65224398,12.6835005 3.27171905,13.053045 C4.89119411,13.4225896 5.41609275,13.8403889 5.41609275,14.2582218 C5.41609275,14.6760547 5.30010593,17.1144892 5.15568005,17.5968316 C5.01125417,18.079174 4.74967369,18.5255277 4.38837339,18.7919381 C3.60358157,19.2183598 2.98022252,19.5649172 2.51829626,19.8316105 C2.4898067,19.8480589 2.30184817,19.9468958 2.34182587,20.1378507 C2.50958334,20.9391501 2.99178802,22.5381159 3.8433074,24.0129908 Z M22.4495794,11.2544043 C23.3010987,12.7292791 24.5778639,13.9853056 25.0145618,14.2886374 C25.1208426,14.3624604 25.2204982,14.2978868 25.2365187,14.2886374 C25.7074426,14.0167494 26.2884533,13.678486 26.9795509,13.2738474 C27.1299257,13.1754467 27.3389664,13.011619 27.9311007,13.011619 C28.523235,13.011619 31.7519424,14.505269 31.8723036,14.7137406 C31.9926647,14.9222123 32.1710834,15.2343079 31.632015,16.981511 C31.0929465,18.7287141 30.8230834,18.8808815 30.6037095,19.0075371 C30.3843356,19.1341927 30.1543293,19.1685434 29.9136836,19.1105903 C27.8752732,18.6196937 26.0373389,17.7582823 24.3998257,16.5263302 C22.8248395,15.3393503 21.5458908,13.8946227 20.5629412,12.192104 C19.5799916,10.4895854 18.9682952,8.65961951 18.7278335,6.70215158 C18.4796883,4.66804746 18.6000886,2.69772532 19.1941649,0.686961814 C19.2642989,0.449580011 19.4616133,0.215482715 19.6809872,0.0888271386 C19.9003611,-0.0378284376 20.2585159,-0.0750860217 21.877991,0.294458557 C23.4974661,0.664003136 24.0223647,1.08180239 24.0223647,1.49963532 C24.0223647,1.91746825 23.9063779,4.35590276 23.761952,4.83824515 C23.6175261,5.32058753 23.3559457,5.76694124 22.9946454,6.03335162 C22.2098535,6.45977328 21.5864945,6.80633074 21.1245682,7.07302399 C21.0960787,7.08947244 20.9081201,7.18830936 20.9480978,7.37926419 C21.1158553,8.18056363 21.59806,9.77952944 22.4495794,11.2544043 Z M19.3811628,15.9700949 C19.7172172,15.6340405 20.1531738,15.6340405 20.4892282,15.9700949 L20.7108413,16.191708 C21.0468956,16.5277623 21.0468956,16.963719 20.7108413,17.2997733 L16.2974078,21.7132068 C16.1997768,21.8108378 16.1997768,21.9691291 16.2974078,22.0667602 C16.3439475,22.1132998 16.4069625,22.1396093 16.4727784,22.1399795 L17.9882005,22.1485029 C18.1851778,22.1496108 18.3445858,22.3090188 18.3456936,22.5059961 C18.3509491,23.4403861 17.7482752,24.0430599 16.8138852,24.0378045 L13.4959439,24.019143 C12.9928108,24.0163131 12.664623,23.6881253 12.6617932,23.1849923 L12.6431316,19.867051 C12.6378762,18.932661 13.2405501,18.3299871 14.1749401,18.3352425 C14.3719174,18.3363504 14.5313254,18.4957584 14.5324332,18.6927357 L14.5409566,20.2081577 C14.5417332,20.3462267 14.6542898,20.4575242 14.7923588,20.4567477 C14.8581747,20.4563775 14.9211897,20.430068 14.9677294,20.3835283 L19.3811628,15.9700949 Z M10.3888723,18.0528024 C10.052818,18.3888568 9.61686133,18.3888568 9.28080696,18.0528024 L9.05919388,17.8311893 C8.72313951,17.495135 8.72313951,17.0591783 9.05919388,16.723124 L13.4726273,12.3096905 C13.5702584,12.2120595 13.5702584,12.0537682 13.4726273,11.9561371 C13.4260877,11.9095975 13.3630727,11.883288 13.2972567,11.8829178 L11.7818347,11.8743944 C11.5848574,11.8732865 11.4254494,11.7138785 11.4243415,11.5169012 C11.4190861,10.5825112 12.0217599,9.97983736 12.95615,9.98509278 L16.2740913,10.0037543 C16.7772243,10.0065842 17.1054121,10.3347719 17.108242,10.837905 L17.1269035,14.1558463 C17.1321589,15.0902363 16.5294851,15.6929102 15.595095,15.6876548 C15.3981178,15.6865469 15.2387098,15.5271389 15.2376019,15.3301616 L15.2290785,13.8147396 C15.2283019,13.6766706 15.1157454,13.5653731 14.9776764,13.5661496 C14.9118604,13.5665198 14.8488454,13.5928293 14.8023058,13.639369 L10.3888723,18.0528024 Z"/>
  </defs>
  <g fill="none" fill-rule="evenodd">
    <use fill="#2A3042" xlink:href="#switch-calls-a"/>
  </g>
</svg>
