<svg xmlns="http://www.w3.org/2000/svg" xmlns:xlink="http://www.w3.org/1999/xlink" width="32" height="32" viewBox="0 0 32 32">
  <defs>
    <path id="transfer-a" d="M2.47443012,16.0080046 C2.47443012,18.0120933 3.03657167,20.0433593 3.30314068,20.6094361 C3.36801658,20.7472044 3.50757127,20.7400325 3.52934019,20.7400325 C4.1692408,20.7400325 4.96038682,20.737162 5.90277824,20.7314211 C6.113925,20.7196179 6.42335535,20.6756553 7.02680813,21.024059 C7.6302609,21.3724626 10.041841,24.7943898 10.041841,25.0776652 C10.041841,25.3609406 10.0400373,25.7839808 8.46263475,27.2474007 C6.88523217,28.7108206 6.52067746,28.7071129 6.22258792,28.7071129 C5.92449839,28.7071129 5.66988406,28.6067877 5.45873731,28.4061343 C3.6702001,26.706482 2.3039769,24.74719 1.3600267,22.5281994 C0.453337701,20.3918309 -3.09717682e-14,18.1669721 0,15.8535565 C3.35527488e-14,13.5401408 0.453337701,11.3152821 1.3600267,9.17891351 C2.3039769,6.95992297 3.58598883,5.02278066 5.37452603,3.32312833 C5.58567279,3.12247493 5.92449839,3 6.22258792,3 C6.52067746,3 6.90760016,3.17276359 8.34059604,4.50224855 C9.77359192,5.8317335 10.0626965,6.56636193 9.81684944,6.99218159 C9.57100235,7.41800125 8.01805743,9.83480059 7.58706734,10.2413846 C7.15607724,10.6479686 6.62686841,10.9489439 6.1019098,11.0078625 C5.05121636,10.9806745 4.21203242,10.9670805 3.58435799,10.9670805 C3.54564581,10.9670805 3.29594026,10.9572144 3.22432693,11.1753416 C2.92381756,12.0906638 2.47443012,14.0039158 2.47443012,16.0080046 Z M24.4325891,16.0080046 C24.4325891,18.0120933 24.9947307,20.0433593 25.2612997,20.6094361 C25.3261756,20.7472044 25.4657303,20.7400325 25.4874992,20.7400325 C26.1273998,20.7400325 26.9185458,20.737162 27.8609372,20.7314211 C28.072084,20.7196179 28.3815144,20.6756553 28.9849671,21.024059 C29.5884199,21.3724626 32,24.7943898 32,25.0776652 C32,25.3609406 31.9981963,25.7839808 30.4207938,27.2474007 C28.8433912,28.7108206 28.4788365,28.7071129 28.1807469,28.7071129 C27.8826574,28.7071129 27.6280431,28.6067877 27.4168963,28.4061343 C25.6283591,26.706482 24.2621359,24.74719 23.3181857,22.5281994 C22.4114967,20.3918309 21.958159,18.1669721 21.958159,15.8535565 C21.958159,13.5401408 22.4114967,11.3152821 23.3181857,9.17891351 C24.2621359,6.95992297 25.5441478,5.02278066 27.332685,3.32312833 C27.5438318,3.12247493 27.8826574,3 28.1807469,3 C28.4788365,3 28.8657592,3.17276359 30.298755,4.50224855 C31.7317509,5.8317335 32.0208555,6.56636193 31.7750085,6.99218159 C31.5291614,7.41800125 29.9762164,9.83480059 29.5452263,10.2413846 C29.1142362,10.6479686 28.5850274,10.9489439 28.0600688,11.0078625 C27.0093754,10.9806745 26.1701914,10.9670805 25.542517,10.9670805 C25.5038048,10.9670805 25.2540993,10.9572144 25.1824859,11.1753416 C24.8819766,12.0906638 24.4325891,14.0039158 24.4325891,16.0080046 Z M10.0609683,16.9246862 C9.48087455,16.9246862 9.10460252,16.5484142 9.10460252,15.9683204 L9.10460252,15.5857741 C9.10460252,15.0056803 9.48087455,14.6294083 10.0609683,14.6294083 L15.215963,14.6294083 C15.3540342,14.6294083 15.465963,14.5174794 15.465963,14.3794083 C15.465963,14.3135912 15.4400083,14.2504293 15.3937311,14.2036286 L14.0002576,12.7943914 C13.8312036,12.623425 13.8312036,12.3482565 14.0002576,12.1772902 C14.8021891,11.3662868 15.8425188,11.3662868 16.6444504,12.1772902 L19.4920426,15.0570958 C19.9238519,15.4937899 19.9238519,16.0603045 19.4920426,16.4969986 L16.6444504,19.3768043 C15.8425188,20.1878076 14.8021891,20.1878076 14.0002576,19.3768043 C13.8312036,19.2058379 13.8312036,18.9306694 14.0002576,18.7597031 L15.3937311,17.3504658 C15.4908115,17.2522872 15.4899213,17.0939985 15.3917426,16.996918 C15.3449419,16.9506409 15.28178,16.9246862 15.215963,16.9246862 L10.0609683,16.9246862 Z"/>
  </defs>
  <g fill="none" fill-rule="evenodd">
    <use fill="#2A3042" xlink:href="#transfer-a"/>
  </g>
</svg>
