<svg xmlns="http://www.w3.org/2000/svg" xmlns:xlink="http://www.w3.org/1999/xlink" width="32" height="32" viewBox="0 0 32 32">
  <defs>
    <path id="vialer-icon-a" d="M16.1225148,28.6 C15.6174721,28.6 12.8980118,25.5272977 12.8980118,24.9347051 C12.8980118,23.8592593 15.3843755,23.2666667 16.1225148,23.2666667 C16.860654,23.2666667 19.3470177,23.8592593 19.3470177,24.9347051 C19.3470177,25.5272977 16.6275574,28.6 16.1225148,28.6 Z M21.7415233,22.2 C21.4501673,22.2 19.1817528,19.952809 16.1225148,19.952809 C13.0424656,19.952809 10.8156734,22.2 10.5035062,22.2 C10.0040388,22.2 6.98642307,18.9640449 6.98642307,18.4247191 C6.98642307,18.2224719 7.06966764,18.0426966 7.1945345,17.9078652 C9.42132678,15.5258427 13.0424656,14.2 16.1225148,14.2 C19.2025639,14.2 22.8237028,15.5258427 25.0504951,17.9078652 C25.1753619,18.0426966 25.2586065,18.2224719 25.2586065,18.4247191 C25.2586065,18.9640449 22.2409908,22.2 21.7415233,22.2 Z M15.8077443,6.05674398 C13.3130713,6.05674398 10.7845684,6.75117571 10.0799207,7.08047707 C9.9084279,7.16062037 9.91735541,7.33301682 9.91735541,7.35990867 C9.91735541,8.1503987 9.92092855,9.1277271 9.92807484,10.2918939 C9.94276729,10.5527303 9.99749155,10.9349797 9.56380163,11.6804445 C9.13011171,12.4259093 4.87052523,15.4050126 4.51790639,15.4050126 C4.16528754,15.4050126 3.63869062,15.4027845 1.81703768,13.4541678 C-0.004615267,11.5055511 5.88787347e-08,11.0552049 5.88787861e-08,10.6869652 C5.88788118e-08,10.3187255 0.124884026,10.0041921 0.374655706,9.74335567 C2.49036876,7.53391751 4.92927917,5.84617756 7.6914601,4.6800852 C10.3507939,3.5600228 13.1202795,3 16,3 C18.8797206,3 21.6492062,3.5600228 24.30854,4.6800852 C27.0707209,5.84617756 29.4820595,7.42988858 31.5977725,9.63932674 C31.8475442,9.90016319 32,10.3187255 32,10.6869652 C32,11.0552049 31.7849453,11.533183 30.1300135,13.3034094 C28.4750817,15.0736358 27.5606224,15.4307762 27.0305656,15.1270733 C26.5005089,14.8233704 23.4920972,12.904967 22.9859848,12.3725509 C22.4798724,11.8401349 22.1052209,11.186386 22.0318794,10.5378876 C22.0657229,9.23993179 22.0826446,8.20326059 22.0826446,7.42787395 C22.0826446,7.38005154 22.0949258,7.07158215 21.8234029,6.98311588 C20.6840175,6.61188689 18.3024173,6.05674398 15.8077443,6.05674398 Z"/>
  </defs>
  <g fill="none" fill-rule="evenodd">
    <use fill="#2A3042" xlink:href="#vialer-icon-a"/>
  </g>
</svg>
