<svg xmlns="http://www.w3.org/2000/svg" xmlns:xlink="http://www.w3.org/1999/xlink" width="32" height="32" viewBox="0 0 32 32">
  <defs>
    <path id="camera-a" d="M23.6956522,12.8434783 L28.5061397,8.03299078 C29.0766447,7.46248572 30.0016162,7.46248572 30.5721212,8.03299078 C30.8460874,8.30695696 31,8.67853485 31,9.06598155 L31,22.4644532 C31,23.2712692 30.3459464,23.9253228 29.5391304,23.9253228 C29.1516837,23.9253228 28.7801058,23.7714102 28.5061397,23.497444 L23.6956522,18.6869565 L23.6956522,23.0695652 C23.6956522,23.8763812 23.0415986,24.5304348 22.2347826,24.5304348 L2.46086957,24.5304348 C1.65405358,24.5304348 1,23.8763812 1,23.0695652 L1,8.46086957 C1,7.65405358 1.65405358,7 2.46086957,7 L22.2347826,7 C23.0415986,7 23.6956522,7.65405358 23.6956522,8.46086957 L23.6956522,12.8434783 Z"/>
  </defs>
  <g fill="none" fill-rule="evenodd">
    <use fill="#2A3042" xlink:href="#camera-a"/>
  </g>
</svg>
