<svg xmlns="http://www.w3.org/2000/svg" xmlns:xlink="http://www.w3.org/1999/xlink" width="32" height="32" viewBox="0 0 32 32">
  <defs>
    <path id="warning-a" d="M17.5652846,18.0353101 L17.5652846,11.9289331 C17.5652846,11.3766484 17.1175693,10.9289331 16.5652846,10.9289331 L15.4343737,10.9289331 C14.882089,10.9289331 14.4343737,11.3766484 14.4343737,11.9289331 L14.4343737,18.0353101 C14.4343737,18.5875948 14.882089,19.0353101 15.4343737,19.0353101 L16.5652846,19.0353101 C17.1175693,19.0353101 17.5652846,18.5875948 17.5652846,18.0353101 Z M17.5652846,24.3734955 L17.5652846,23.166221 C17.5652846,22.6139362 17.1175693,22.166221 16.5652846,22.166221 L15.4343737,22.166221 C14.882089,22.166221 14.4343737,22.6139362 14.4343737,23.166221 L14.4343737,24.3734955 C14.4343737,24.9257802 14.882089,25.3734955 15.4343737,25.3734955 L16.5652846,25.3734955 C17.1175693,25.3734955 17.5652846,24.9257802 17.5652846,24.3734955 Z M0.217401942,27.1424293 L14.2699756,2.92546678 C14.824357,1.97009506 16.0482536,1.6450281 17.0036253,2.19940942 C17.3047054,2.37411961 17.5549725,2.62438671 17.7296827,2.92546678 L31.7822564,27.1424293 C32.3366377,28.097801 32.0115708,29.3216977 31.056199,29.876079 C30.7512597,30.0530286 30.4049637,30.1462255 30.0524029,30.1462255 L1.94725547,30.1462255 C0.842685975,30.1462255 -0.0527445251,29.250795 -0.0527445251,28.1462255 C-0.0527445251,27.7936646 0.0404523263,27.4473686 0.217401942,27.1424293 Z"/>
  </defs>
  <g fill="none" fill-rule="evenodd">
    <use fill="#2A3042" xlink:href="#warning-a"/>
  </g>
</svg>
